<svg id="svg" version="1.1" width="400" height="114.28571428571429" xmlns="http://www.w3.org/2000/svg" xmlns:xlink="http://www.w3.org/1999/xlink" style="display: block;"><g id="svgg"><path id="path0" d="M2.974 24.781 L 2.032 24.849 1.921 26.716 C 1.762 29.409,1.890 85.279,2.056 85.444 C 2.237 85.626,20.596 85.626,20.778 85.444 C 21.029 85.194,20.951 25.218,20.700 24.967 C 20.488 24.755,5.502 24.597,2.974 24.781 M40.047 24.824 C 36.340 24.937,36.453 24.872,36.333 26.964 L 36.250 28.417 34.583 28.542 C 32.457 28.703,32.500 28.682,32.500 29.554 C 32.500 29.956,32.452 30.745,32.393 31.309 L 32.286 32.333 30.904 32.333 C 28.671 32.333,28.687 32.319,28.631 34.452 L 28.583 36.250 27.333 36.342 C 24.690 36.538,24.925 34.839,24.868 54.167 C 24.807 74.730,24.716 73.830,26.869 73.955 C 28.799 74.068,28.667 73.924,28.667 75.914 C 28.667 78.014,28.653 78.000,30.802 78.000 L 32.294 78.000 32.414 79.760 C 32.556 81.847,32.541 81.833,34.746 81.833 L 36.137 81.833 36.248 83.292 C 36.392 85.176,36.436 85.308,36.969 85.458 C 37.215 85.527,43.845 85.583,51.702 85.583 C 68.343 85.583,66.531 85.846,66.637 83.418 L 66.706 81.833 68.238 81.833 C 70.362 81.833,70.402 81.795,70.474 79.680 L 70.531 78.000 72.141 77.997 C 74.456 77.994,74.250 78.539,74.247 72.407 C 74.244 66.177,74.429 66.667,72.073 66.667 L 70.544 66.667 70.465 64.901 C 70.371 62.783,70.430 62.839,68.317 62.836 L 66.717 62.833 66.611 61.217 C 66.463 58.972,66.662 59.083,62.814 59.083 C 58.988 59.083,59.167 58.976,59.167 61.267 L 59.167 62.803 57.410 62.860 C 55.290 62.928,55.339 62.877,55.336 65.042 L 55.333 66.667 53.356 66.667 L 51.379 66.667 51.265 65.407 C 51.076 63.324,50.746 63.000,48.814 63.000 C 47.599 63.000,47.500 62.845,47.500 60.948 C 47.500 59.155,47.441 59.102,45.391 59.026 L 43.833 58.968 43.833 55.175 L 43.833 51.383 45.245 51.283 C 47.550 51.121,47.430 51.347,47.594 46.814 L 47.701 43.877 49.746 43.798 C 50.870 43.755,52.588 43.755,53.562 43.798 L 55.333 43.877 55.333 45.323 C 55.333 47.351,55.385 47.402,57.486 47.474 L 59.167 47.531 59.167 49.067 C 59.167 51.357,58.988 51.250,62.814 51.250 C 66.677 51.250,66.485 51.358,66.620 49.107 L 66.716 47.500 68.316 47.497 C 70.430 47.494,70.371 47.551,70.465 45.432 L 70.544 43.667 78.102 43.667 L 85.660 43.667 85.705 64.486 C 85.730 75.937,85.813 85.368,85.889 85.444 C 86.138 85.693,104.283 85.617,104.533 85.367 C 104.708 85.192,104.760 81.152,104.800 64.408 L 104.850 43.667 111.734 43.667 C 118.743 43.667,119.501 43.607,119.771 43.030 C 120.044 42.449,120.046 25.451,119.774 25.083 C 119.390 24.566,71.115 24.556,70.737 25.074 C 70.570 25.302,70.500 25.886,70.500 27.053 L 70.500 28.708 69.979 28.604 C 69.693 28.547,68.840 28.500,68.085 28.500 L 66.712 28.500 66.628 26.889 C 66.564 25.674,66.478 25.229,66.277 25.082 C 65.766 24.709,49.199 24.546,40.047 24.824 M138.035 24.820 C 136.179 24.895,135.618 24.972,135.490 25.167 C 135.239 25.552,135.366 42.122,135.625 42.711 C 135.989 43.540,136.240 43.569,143.625 43.632 L 150.500 43.690 150.503 64.387 C 150.504 77.132,150.566 85.179,150.663 85.333 C 150.857 85.641,168.275 85.808,169.058 85.510 L 169.500 85.342 169.500 64.504 L 169.500 43.667 175.246 43.667 L 180.992 43.667 181.038 56.742 C 181.090 71.809,180.842 70.227,183.165 70.307 L 184.815 70.364 184.866 73.843 C 184.928 78.066,184.808 77.844,187.070 77.962 L 188.667 78.045 188.667 79.504 C 188.667 81.524,188.769 81.630,190.852 81.771 L 192.455 81.879 192.559 83.115 C 192.781 85.738,192.252 85.661,209.917 85.648 C 227.580 85.635,226.381 85.801,226.573 83.350 L 226.689 81.871 228.342 81.805 C 230.381 81.723,230.364 81.740,230.464 79.675 L 230.545 78.000 232.033 78.000 C 234.116 78.000,234.095 78.020,234.236 75.975 C 234.379 73.893,234.311 74.000,235.485 74.000 C 237.813 74.000,237.831 73.960,238.035 68.167 C 238.218 62.982,238.079 39.187,237.858 37.946 C 237.642 36.727,237.277 36.461,235.693 36.369 L 234.367 36.292 234.225 34.445 C 234.060 32.289,234.158 32.378,231.897 32.350 L 230.545 32.333 230.464 30.658 C 230.365 28.614,230.448 28.698,228.385 28.563 L 226.697 28.452 226.587 27.101 C 226.440 25.311,226.407 25.226,225.785 25.005 C 224.415 24.519,194.728 24.643,193.468 25.140 C 192.854 25.383,192.681 25.779,192.559 27.225 C 192.438 28.661,192.428 28.667,190.322 28.667 C 188.817 28.667,188.667 28.867,188.667 30.870 L 188.667 32.333 187.792 32.348 C 186.065 32.377,185.273 32.555,185.072 32.959 C 184.926 33.252,184.863 32.427,184.788 29.230 C 184.724 26.539,184.627 25.060,184.504 24.937 C 184.303 24.736,142.697 24.632,138.035 24.820 M242.974 24.789 L 242.032 24.849 241.921 26.716 C 241.762 29.409,241.890 85.279,242.056 85.444 C 242.132 85.521,250.548 85.583,260.758 85.583 C 282.310 85.583,279.864 85.859,279.970 83.418 L 280.040 81.833 281.571 81.833 C 283.696 81.833,283.735 81.795,283.807 79.680 L 283.865 78.000 285.360 78.000 C 287.463 78.000,287.444 78.018,287.585 75.943 L 287.703 74.214 289.097 74.115 C 291.642 73.936,291.416 75.788,291.416 55.083 C 291.416 34.643,291.628 36.434,289.186 36.243 L 287.704 36.127 287.585 34.386 C 287.445 32.323,287.456 32.333,285.255 32.333 L 283.865 32.333 283.807 30.675 C 283.736 28.622,283.750 28.636,281.697 28.537 L 280.043 28.458 279.960 26.867 C 279.850 24.764,280.194 24.908,274.963 24.777 C 270.578 24.667,244.749 24.677,242.974 24.789 M309.305 24.824 C 308.052 24.875,306.964 24.979,306.888 25.055 C 306.812 25.132,306.727 27.663,306.700 30.680 L 306.650 36.167 305.107 36.167 C 302.797 36.167,302.928 35.930,302.861 40.217 L 302.805 43.794 302.194 43.895 C 301.858 43.951,301.336 43.997,301.033 43.998 C 300.364 44.000,299.583 44.382,299.421 44.786 C 299.264 45.178,299.018 49.985,299.008 52.853 L 299.000 55.123 298.375 55.226 C 298.031 55.283,297.402 55.330,296.977 55.331 C 295.332 55.335,295.337 55.305,295.185 65.442 L 295.167 66.634 293.591 66.692 C 291.415 66.772,291.592 66.269,291.535 72.569 L 291.487 77.956 289.801 78.037 C 288.417 78.104,288.074 78.173,287.890 78.424 C 287.559 78.877,287.570 84.804,287.903 85.260 C 288.206 85.674,309.788 85.778,310.200 85.367 C 310.361 85.206,310.430 84.229,310.470 81.575 L 310.524 78.000 318.069 78.000 L 325.615 78.000 325.723 80.375 C 325.783 81.681,325.832 83.245,325.833 83.849 C 325.834 85.735,324.828 85.574,337.059 85.639 C 344.301 85.677,347.729 85.638,348.050 85.515 L 348.517 85.335 348.467 78.257 C 348.408 69.927,348.602 70.639,346.362 70.532 L 344.883 70.462 344.775 68.204 C 344.715 66.963,344.662 64.965,344.657 63.765 C 344.638 59.700,344.450 59.324,342.369 59.203 L 341.051 59.127 340.931 54.522 C 340.759 47.893,340.814 48.054,338.613 47.781 L 337.199 47.606 337.141 44.039 C 337.072 39.765,337.202 40.000,334.893 40.000 L 333.350 40.000 333.300 34.508 C 333.269 31.137,333.186 28.952,333.083 28.851 C 332.992 28.760,332.150 28.634,331.214 28.570 L 329.511 28.453 329.464 26.685 L 329.417 24.917 328.333 24.811 C 327.027 24.684,312.511 24.694,309.305 24.824 M343.417 24.789 C 340.833 24.855,340.999 24.595,341.003 28.574 C 341.006 32.467,340.878 32.236,343.058 32.306 L 344.795 32.363 344.869 37.306 C 344.963 43.514,344.902 43.355,347.296 43.591 L 348.463 43.706 348.563 44.311 C 348.618 44.644,348.664 46.014,348.665 47.354 C 348.668 51.163,348.645 51.123,350.898 51.282 L 352.287 51.380 352.405 54.898 C 352.544 59.069,352.415 58.825,354.543 58.952 L 356.134 59.047 356.192 62.613 C 356.260 66.795,356.091 66.494,358.375 66.497 L 360.000 66.500 360.000 75.921 L 360.000 85.342 360.442 85.510 C 360.973 85.712,378.475 85.653,378.792 85.448 C 378.954 85.343,379.000 83.254,379.000 75.928 L 379.000 66.543 380.338 66.426 C 382.709 66.220,382.811 65.900,382.826 58.625 L 382.833 55.167 384.385 55.167 C 386.707 55.167,386.573 55.408,386.634 51.097 L 386.685 47.500 388.227 47.500 C 390.522 47.500,390.388 47.743,390.471 43.436 L 390.541 39.833 391.945 39.833 C 393.842 39.833,394.167 39.546,394.167 37.867 C 394.167 37.236,394.215 35.704,394.275 34.463 L 394.383 32.207 395.720 32.129 C 397.471 32.028,397.751 31.746,397.923 29.906 C 398.162 27.360,397.809 25.443,397.050 25.154 C 395.961 24.740,381.688 24.495,377.000 24.810 L 375.417 24.917 375.377 25.750 C 375.355 26.208,375.294 27.045,375.240 27.609 L 375.144 28.634 373.661 28.692 C 371.500 28.776,371.595 28.591,371.527 32.839 L 371.471 36.333 370.397 36.333 C 368.441 36.333,368.027 36.652,367.852 38.299 C 367.752 39.234,367.711 38.880,367.598 36.130 C 367.441 32.274,367.575 32.508,365.442 32.380 L 363.866 32.286 363.808 28.720 C 363.764 26.014,363.697 25.122,363.532 25.020 C 363.052 24.723,351.305 24.589,343.417 24.789 M184.788 39.455 C 184.752 39.800,184.722 39.558,184.721 38.917 C 184.721 38.275,184.750 37.992,184.787 38.288 C 184.824 38.584,184.824 39.109,184.788 39.455 M211.561 44.440 C 211.619 44.865,211.667 45.424,211.667 45.682 C 211.667 46.879,212.164 47.218,214.208 47.417 L 215.333 47.527 215.333 48.659 C 215.333 50.996,215.450 51.132,217.588 51.283 L 219.000 51.383 219.000 55.170 L 219.000 58.957 217.536 59.072 C 215.484 59.232,215.333 59.404,215.333 61.591 C 215.333 63.001,215.414 62.936,213.548 63.044 C 211.984 63.134,211.812 63.359,211.576 65.625 L 211.467 66.667 209.484 66.667 L 207.500 66.667 207.500 65.115 C 207.500 63.000,207.456 62.952,205.461 62.865 L 203.883 62.796 203.768 59.557 C 203.612 55.181,203.818 55.512,201.083 55.224 L 199.917 55.101 201.255 54.992 C 203.525 54.808,203.576 54.713,203.762 50.307 L 203.880 47.531 205.454 47.474 C 207.437 47.402,207.500 47.335,207.500 45.308 L 207.500 43.846 208.958 43.791 C 209.760 43.760,210.650 43.720,210.936 43.701 C 211.433 43.668,211.459 43.698,211.561 44.440 M267.772 43.772 L 268.627 43.875 268.704 46.896 C 268.807 50.956,268.817 50.973,271.000 51.149 L 272.250 51.250 272.295 55.187 L 272.339 59.123 270.993 59.201 C 268.846 59.326,268.694 59.648,268.677 64.125 L 268.667 66.667 264.833 66.667 L 261.000 66.667 261.000 55.167 L 261.000 43.667 263.958 43.668 C 265.585 43.669,267.301 43.716,267.772 43.772 M318.487 62.388 C 318.594 62.495,319.297 62.627,320.049 62.680 L 321.417 62.777 319.708 62.805 L 318.000 62.833 318.022 61.542 L 318.044 60.250 318.168 61.221 C 318.236 61.755,318.380 62.280,318.487 62.388 " stroke="none" fill="#ffffff" fill-rule="evenodd"></path><path id="path1" d="M2.974 24.781 L 2.032 24.849 1.921 26.716 C 1.762 29.409,1.890 85.279,2.056 85.444 C 2.237 85.626,20.596 85.626,20.778 85.444 C 21.029 85.194,20.951 25.218,20.700 24.967 C 20.488 24.755,5.502 24.597,2.974 24.781 M40.047 24.824 C 36.340 24.937,36.453 24.872,36.333 26.964 L 36.250 28.417 34.583 28.542 C 32.457 28.703,32.500 28.682,32.500 29.554 C 32.500 29.956,32.452 30.745,32.393 31.309 L 32.286 32.333 30.904 32.333 C 28.671 32.333,28.687 32.319,28.631 34.452 L 28.583 36.250 27.333 36.342 C 24.690 36.538,24.925 34.839,24.868 54.167 C 24.807 74.730,24.716 73.830,26.869 73.955 C 28.799 74.068,28.667 73.924,28.667 75.914 C 28.667 78.014,28.653 78.000,30.802 78.000 L 32.294 78.000 32.414 79.760 C 32.556 81.847,32.541 81.833,34.746 81.833 L 36.137 81.833 36.248 83.292 C 36.392 85.176,36.436 85.308,36.969 85.458 C 37.215 85.527,43.845 85.583,51.702 85.583 C 68.343 85.583,66.531 85.846,66.637 83.418 L 66.706 81.833 68.238 81.833 C 70.362 81.833,70.402 81.795,70.474 79.680 L 70.531 78.000 72.141 77.997 C 74.456 77.994,74.250 78.539,74.247 72.407 C 74.244 66.177,74.429 66.667,72.073 66.667 L 70.544 66.667 70.465 64.901 C 70.371 62.783,70.430 62.839,68.317 62.836 L 66.717 62.833 66.611 61.217 C 66.463 58.972,66.662 59.083,62.814 59.083 C 58.988 59.083,59.167 58.976,59.167 61.267 L 59.167 62.803 57.410 62.860 C 55.290 62.928,55.339 62.877,55.336 65.042 L 55.333 66.667 53.356 66.667 L 51.379 66.667 51.265 65.407 C 51.076 63.324,50.746 63.000,48.814 63.000 C 47.599 63.000,47.500 62.845,47.500 60.948 C 47.500 59.155,47.441 59.102,45.391 59.026 L 43.833 58.968 43.833 55.175 L 43.833 51.383 45.245 51.283 C 47.550 51.121,47.430 51.347,47.594 46.814 L 47.701 43.877 49.746 43.798 C 50.870 43.755,52.588 43.755,53.562 43.798 L 55.333 43.877 55.333 45.323 C 55.333 47.351,55.385 47.402,57.486 47.474 L 59.167 47.531 59.167 49.067 C 59.167 51.357,58.988 51.250,62.814 51.250 C 66.677 51.250,66.485 51.358,66.620 49.107 L 66.716 47.500 68.316 47.497 C 70.430 47.494,70.371 47.551,70.465 45.432 L 70.544 43.667 78.102 43.667 L 85.660 43.667 85.705 64.486 C 85.730 75.937,85.813 85.368,85.889 85.444 C 86.138 85.693,104.283 85.617,104.533 85.367 C 104.708 85.192,104.760 81.152,104.800 64.408 L 104.850 43.667 111.734 43.667 C 118.743 43.667,119.501 43.607,119.771 43.030 C 120.044 42.449,120.046 25.451,119.774 25.083 C 119.390 24.566,71.115 24.556,70.737 25.074 C 70.570 25.302,70.500 25.886,70.500 27.053 L 70.500 28.708 69.979 28.604 C 69.693 28.547,68.840 28.500,68.085 28.500 L 66.712 28.500 66.628 26.889 C 66.564 25.674,66.478 25.229,66.277 25.082 C 65.766 24.709,49.199 24.546,40.047 24.824 M138.035 24.820 C 136.179 24.895,135.618 24.972,135.490 25.167 C 135.239 25.552,135.366 42.122,135.625 42.711 C 135.989 43.540,136.240 43.569,143.625 43.632 L 150.500 43.690 150.503 64.387 C 150.504 77.132,150.566 85.179,150.663 85.333 C 150.857 85.641,168.275 85.808,169.058 85.510 L 169.500 85.342 169.500 64.504 L 169.500 43.667 175.246 43.667 L 180.992 43.667 181.038 56.742 C 181.090 71.809,180.842 70.227,183.165 70.307 L 184.815 70.364 184.866 73.843 C 184.928 78.066,184.808 77.844,187.070 77.962 L 188.667 78.045 188.667 79.504 C 188.667 81.524,188.769 81.630,190.852 81.771 L 192.455 81.879 192.559 83.115 C 192.781 85.738,192.252 85.661,209.917 85.648 C 227.580 85.635,226.381 85.801,226.573 83.350 L 226.689 81.871 228.342 81.805 C 230.381 81.723,230.364 81.740,230.464 79.675 L 230.545 78.000 232.033 78.000 C 234.116 78.000,234.095 78.020,234.236 75.975 C 234.379 73.893,234.311 74.000,235.485 74.000 C 237.813 74.000,237.831 73.960,238.035 68.167 C 238.218 62.982,238.079 39.187,237.858 37.946 C 237.642 36.727,237.277 36.461,235.693 36.369 L 234.367 36.292 234.225 34.445 C 234.060 32.289,234.158 32.378,231.897 32.350 L 230.545 32.333 230.464 30.658 C 230.365 28.614,230.448 28.698,228.385 28.563 L 226.697 28.452 226.587 27.101 C 226.440 25.311,226.407 25.226,225.785 25.005 C 224.415 24.519,194.728 24.643,193.468 25.140 C 192.854 25.383,192.681 25.779,192.559 27.225 C 192.438 28.661,192.428 28.667,190.322 28.667 C 188.817 28.667,188.667 28.867,188.667 30.870 L 188.667 32.333 187.792 32.348 C 186.065 32.377,185.273 32.555,185.072 32.959 C 184.926 33.252,184.863 32.427,184.788 29.230 C 184.724 26.539,184.627 25.060,184.504 24.937 C 184.303 24.736,142.697 24.632,138.035 24.820 M242.974 24.789 L 242.032 24.849 241.921 26.716 C 241.762 29.409,241.890 85.279,242.056 85.444 C 242.132 85.521,250.548 85.583,260.758 85.583 C 282.310 85.583,279.864 85.859,279.970 83.418 L 280.040 81.833 281.571 81.833 C 283.696 81.833,283.735 81.795,283.807 79.680 L 283.865 78.000 285.360 78.000 C 287.463 78.000,287.444 78.018,287.585 75.943 L 287.703 74.214 289.097 74.115 C 291.642 73.936,291.416 75.788,291.416 55.083 C 291.416 34.643,291.628 36.434,289.186 36.243 L 287.704 36.127 287.585 34.386 C 287.445 32.323,287.456 32.333,285.255 32.333 L 283.865 32.333 283.807 30.675 C 283.736 28.622,283.750 28.636,281.697 28.537 L 280.043 28.458 279.960 26.867 C 279.850 24.764,280.194 24.908,274.963 24.777 C 270.578 24.667,244.749 24.677,242.974 24.789 M309.305 24.824 C 308.052 24.875,306.964 24.979,306.888 25.055 C 306.812 25.132,306.727 27.663,306.700 30.680 L 306.650 36.167 305.107 36.167 C 302.797 36.167,302.928 35.930,302.861 40.217 L 302.805 43.794 302.194 43.895 C 301.858 43.951,301.336 43.997,301.033 43.998 C 300.364 44.000,299.583 44.382,299.421 44.786 C 299.264 45.178,299.018 49.985,299.008 52.853 L 299.000 55.123 298.375 55.226 C 298.031 55.283,297.402 55.330,296.977 55.331 C 295.332 55.335,295.337 55.305,295.185 65.442 L 295.167 66.634 293.591 66.692 C 291.415 66.772,291.592 66.269,291.535 72.569 L 291.487 77.956 289.801 78.037 C 288.417 78.104,288.074 78.173,287.890 78.424 C 287.559 78.877,287.570 84.804,287.903 85.260 C 288.206 85.674,309.788 85.778,310.200 85.367 C 310.361 85.206,310.430 84.229,310.470 81.575 L 310.524 78.000 318.069 78.000 L 325.615 78.000 325.723 80.375 C 325.783 81.681,325.832 83.245,325.833 83.849 C 325.834 85.735,324.828 85.574,337.059 85.639 C 344.301 85.677,347.729 85.638,348.050 85.515 L 348.517 85.335 348.467 78.257 C 348.408 69.927,348.602 70.639,346.362 70.532 L 344.883 70.462 344.775 68.204 C 344.715 66.963,344.662 64.965,344.657 63.765 C 344.638 59.700,344.450 59.324,342.369 59.203 L 341.051 59.127 340.931 54.522 C 340.759 47.893,340.814 48.054,338.613 47.781 L 337.199 47.606 337.141 44.039 C 337.072 39.765,337.202 40.000,334.893 40.000 L 333.350 40.000 333.300 34.508 C 333.269 31.137,333.186 28.952,333.083 28.851 C 332.992 28.760,332.150 28.634,331.214 28.570 L 329.511 28.453 329.464 26.685 L 329.417 24.917 328.333 24.811 C 327.027 24.684,312.511 24.694,309.305 24.824 M343.417 24.789 C 340.833 24.855,340.999 24.595,341.003 28.574 C 341.006 32.467,340.878 32.236,343.058 32.306 L 344.795 32.363 344.869 37.306 C 344.963 43.514,344.902 43.355,347.296 43.591 L 348.463 43.706 348.563 44.311 C 348.618 44.644,348.664 46.014,348.665 47.354 C 348.668 51.163,348.645 51.123,350.898 51.282 L 352.287 51.380 352.405 54.898 C 352.544 59.069,352.415 58.825,354.543 58.952 L 356.134 59.047 356.192 62.613 C 356.260 66.795,356.091 66.494,358.375 66.497 L 360.000 66.500 360.000 75.921 L 360.000 85.342 360.442 85.510 C 360.973 85.712,378.475 85.653,378.792 85.448 C 378.954 85.343,379.000 83.254,379.000 75.928 L 379.000 66.543 380.338 66.426 C 382.709 66.220,382.811 65.900,382.826 58.625 L 382.833 55.167 384.385 55.167 C 386.707 55.167,386.573 55.408,386.634 51.097 L 386.685 47.500 388.227 47.500 C 390.522 47.500,390.388 47.743,390.471 43.436 L 390.541 39.833 391.945 39.833 C 393.842 39.833,394.167 39.546,394.167 37.867 C 394.167 37.236,394.215 35.704,394.275 34.463 L 394.383 32.207 395.720 32.129 C 397.471 32.028,397.751 31.746,397.923 29.906 C 398.162 27.360,397.809 25.443,397.050 25.154 C 395.961 24.740,381.688 24.495,377.000 24.810 L 375.417 24.917 375.377 25.750 C 375.355 26.208,375.294 27.045,375.240 27.609 L 375.144 28.634 373.661 28.692 C 371.500 28.776,371.595 28.591,371.527 32.839 L 371.471 36.333 370.397 36.333 C 368.441 36.333,368.027 36.652,367.852 38.299 C 367.752 39.234,367.711 38.880,367.598 36.130 C 367.441 32.274,367.575 32.508,365.442 32.380 L 363.866 32.286 363.808 28.720 C 363.764 26.014,363.697 25.122,363.532 25.020 C 363.052 24.723,351.305 24.589,343.417 24.789 M184.788 39.455 C 184.752 39.800,184.722 39.558,184.721 38.917 C 184.721 38.275,184.750 37.992,184.787 38.288 C 184.824 38.584,184.824 39.109,184.788 39.455 M211.561 44.440 C 211.619 44.865,211.667 45.424,211.667 45.682 C 211.667 46.879,212.164 47.218,214.208 47.417 L 215.333 47.527 215.333 48.659 C 215.333 50.996,215.450 51.132,217.588 51.283 L 219.000 51.383 219.000 55.170 L 219.000 58.957 217.536 59.072 C 215.484 59.232,215.333 59.404,215.333 61.591 C 215.333 63.001,215.414 62.936,213.548 63.044 C 211.984 63.134,211.812 63.359,211.576 65.625 L 211.467 66.667 209.484 66.667 L 207.500 66.667 207.500 65.115 C 207.500 63.000,207.456 62.952,205.461 62.865 L 203.883 62.796 203.768 59.557 C 203.612 55.181,203.818 55.512,201.083 55.224 L 199.917 55.101 201.255 54.992 C 203.525 54.808,203.576 54.713,203.762 50.307 L 203.880 47.531 205.454 47.474 C 207.437 47.402,207.500 47.335,207.500 45.308 L 207.500 43.846 208.958 43.791 C 209.760 43.760,210.650 43.720,210.936 43.701 C 211.433 43.668,211.459 43.698,211.561 44.440 M267.772 43.772 L 268.627 43.875 268.704 46.896 C 268.807 50.956,268.817 50.973,271.000 51.149 L 272.250 51.250 272.295 55.187 L 272.339 59.123 270.993 59.201 C 268.846 59.326,268.694 59.648,268.677 64.125 L 268.667 66.667 264.833 66.667 L 261.000 66.667 261.000 55.167 L 261.000 43.667 263.958 43.668 C 265.585 43.669,267.301 43.716,267.772 43.772 M318.487 62.388 C 318.594 62.495,319.297 62.627,320.049 62.680 L 321.417 62.777 319.708 62.805 L 318.000 62.833 318.022 61.542 L 318.044 60.250 318.168 61.221 C 318.236 61.755,318.380 62.280,318.487 62.388 " stroke="none" fill="#ffffff" fill-rule="evenodd"></path><path id="path2" d="M2.974 24.781 L 2.032 24.849 1.921 26.716 C 1.762 29.409,1.890 85.279,2.056 85.444 C 2.237 85.626,20.596 85.626,20.778 85.444 C 21.029 85.194,20.951 25.218,20.700 24.967 C 20.488 24.755,5.502 24.597,2.974 24.781 M40.047 24.824 C 36.340 24.937,36.453 24.872,36.333 26.964 L 36.250 28.417 34.583 28.542 C 32.457 28.703,32.500 28.682,32.500 29.554 C 32.500 29.956,32.452 30.745,32.393 31.309 L 32.286 32.333 30.904 32.333 C 28.671 32.333,28.687 32.319,28.631 34.452 L 28.583 36.250 27.333 36.342 C 24.690 36.538,24.925 34.839,24.868 54.167 C 24.807 74.730,24.716 73.830,26.869 73.955 C 28.799 74.068,28.667 73.924,28.667 75.914 C 28.667 78.014,28.653 78.000,30.802 78.000 L 32.294 78.000 32.414 79.760 C 32.556 81.847,32.541 81.833,34.746 81.833 L 36.137 81.833 36.248 83.292 C 36.392 85.176,36.436 85.308,36.969 85.458 C 37.215 85.527,43.845 85.583,51.702 85.583 C 68.343 85.583,66.531 85.846,66.637 83.418 L 66.706 81.833 68.238 81.833 C 70.362 81.833,70.402 81.795,70.474 79.680 L 70.531 78.000 72.141 77.997 C 74.456 77.994,74.250 78.539,74.247 72.407 C 74.244 66.177,74.429 66.667,72.073 66.667 L 70.544 66.667 70.465 64.901 C 70.371 62.783,70.430 62.839,68.317 62.836 L 66.717 62.833 66.611 61.217 C 66.463 58.972,66.662 59.083,62.814 59.083 C 58.988 59.083,59.167 58.976,59.167 61.267 L 59.167 62.803 57.410 62.860 C 55.290 62.928,55.339 62.877,55.336 65.042 L 55.333 66.667 53.356 66.667 L 51.379 66.667 51.265 65.407 C 51.076 63.324,50.746 63.000,48.814 63.000 C 47.599 63.000,47.500 62.845,47.500 60.948 C 47.500 59.155,47.441 59.102,45.391 59.026 L 43.833 58.968 43.833 55.175 L 43.833 51.383 45.245 51.283 C 47.550 51.121,47.430 51.347,47.594 46.814 L 47.701 43.877 49.746 43.798 C 50.870 43.755,52.588 43.755,53.562 43.798 L 55.333 43.877 55.333 45.323 C 55.333 47.351,55.385 47.402,57.486 47.474 L 59.167 47.531 59.167 49.067 C 59.167 51.357,58.988 51.250,62.814 51.250 C 66.677 51.250,66.485 51.358,66.620 49.107 L 66.716 47.500 68.316 47.497 C 70.430 47.494,70.371 47.551,70.465 45.432 L 70.544 43.667 78.102 43.667 L 85.660 43.667 85.705 64.486 C 85.730 75.937,85.813 85.368,85.889 85.444 C 86.138 85.693,104.283 85.617,104.533 85.367 C 104.708 85.192,104.760 81.152,104.800 64.408 L 104.850 43.667 111.734 43.667 C 118.743 43.667,119.501 43.607,119.771 43.030 C 120.044 42.449,120.046 25.451,119.774 25.083 C 119.390 24.566,71.115 24.556,70.737 25.074 C 70.570 25.302,70.500 25.886,70.500 27.053 L 70.500 28.708 69.979 28.604 C 69.693 28.547,68.840 28.500,68.085 28.500 L 66.712 28.500 66.628 26.889 C 66.564 25.674,66.478 25.229,66.277 25.082 C 65.766 24.709,49.199 24.546,40.047 24.824 M138.035 24.820 C 136.179 24.895,135.618 24.972,135.490 25.167 C 135.239 25.552,135.366 42.122,135.625 42.711 C 135.989 43.540,136.240 43.569,143.625 43.632 L 150.500 43.690 150.503 64.387 C 150.504 77.132,150.566 85.179,150.663 85.333 C 150.857 85.641,168.275 85.808,169.058 85.510 L 169.500 85.342 169.500 64.504 L 169.500 43.667 175.246 43.667 L 180.992 43.667 181.038 56.742 C 181.090 71.809,180.842 70.227,183.165 70.307 L 184.815 70.364 184.866 73.843 C 184.928 78.066,184.808 77.844,187.070 77.962 L 188.667 78.045 188.667 79.504 C 188.667 81.524,188.769 81.630,190.852 81.771 L 192.455 81.879 192.559 83.115 C 192.781 85.738,192.252 85.661,209.917 85.648 C 227.580 85.635,226.381 85.801,226.573 83.350 L 226.689 81.871 228.342 81.805 C 230.381 81.723,230.364 81.740,230.464 79.675 L 230.545 78.000 232.033 78.000 C 234.116 78.000,234.095 78.020,234.236 75.975 C 234.379 73.893,234.311 74.000,235.485 74.000 C 237.813 74.000,237.831 73.960,238.035 68.167 C 238.218 62.982,238.079 39.187,237.858 37.946 C 237.642 36.727,237.277 36.461,235.693 36.369 L 234.367 36.292 234.225 34.445 C 234.060 32.289,234.158 32.378,231.897 32.350 L 230.545 32.333 230.464 30.658 C 230.365 28.614,230.448 28.698,228.385 28.563 L 226.697 28.452 226.587 27.101 C 226.440 25.311,226.407 25.226,225.785 25.005 C 224.415 24.519,194.728 24.643,193.468 25.140 C 192.854 25.383,192.681 25.779,192.559 27.225 C 192.438 28.661,192.428 28.667,190.322 28.667 C 188.817 28.667,188.667 28.867,188.667 30.870 L 188.667 32.333 187.792 32.348 C 186.065 32.377,185.273 32.555,185.072 32.959 C 184.926 33.252,184.863 32.427,184.788 29.230 C 184.724 26.539,184.627 25.060,184.504 24.937 C 184.303 24.736,142.697 24.632,138.035 24.820 M242.974 24.789 L 242.032 24.849 241.921 26.716 C 241.762 29.409,241.890 85.279,242.056 85.444 C 242.132 85.521,250.548 85.583,260.758 85.583 C 282.310 85.583,279.864 85.859,279.970 83.418 L 280.040 81.833 281.571 81.833 C 283.696 81.833,283.735 81.795,283.807 79.680 L 283.865 78.000 285.360 78.000 C 287.463 78.000,287.444 78.018,287.585 75.943 L 287.703 74.214 289.097 74.115 C 291.642 73.936,291.416 75.788,291.416 55.083 C 291.416 34.643,291.628 36.434,289.186 36.243 L 287.704 36.127 287.585 34.386 C 287.445 32.323,287.456 32.333,285.255 32.333 L 283.865 32.333 283.807 30.675 C 283.736 28.622,283.750 28.636,281.697 28.537 L 280.043 28.458 279.960 26.867 C 279.850 24.764,280.194 24.908,274.963 24.777 C 270.578 24.667,244.749 24.677,242.974 24.789 M309.305 24.824 C 308.052 24.875,306.964 24.979,306.888 25.055 C 306.812 25.132,306.727 27.663,306.700 30.680 L 306.650 36.167 305.107 36.167 C 302.797 36.167,302.928 35.930,302.861 40.217 L 302.805 43.794 302.194 43.895 C 301.858 43.951,301.336 43.997,301.033 43.998 C 300.364 44.000,299.583 44.382,299.421 44.786 C 299.264 45.178,299.018 49.985,299.008 52.853 L 299.000 55.123 298.375 55.226 C 298.031 55.283,297.402 55.330,296.977 55.331 C 295.332 55.335,295.337 55.305,295.185 65.442 L 295.167 66.634 293.591 66.692 C 291.415 66.772,291.592 66.269,291.535 72.569 L 291.487 77.956 289.801 78.037 C 288.417 78.104,288.074 78.173,287.890 78.424 C 287.559 78.877,287.570 84.804,287.903 85.260 C 288.206 85.674,309.788 85.778,310.200 85.367 C 310.361 85.206,310.430 84.229,310.470 81.575 L 310.524 78.000 318.069 78.000 L 325.615 78.000 325.723 80.375 C 325.783 81.681,325.832 83.245,325.833 83.849 C 325.834 85.735,324.828 85.574,337.059 85.639 C 344.301 85.677,347.729 85.638,348.050 85.515 L 348.517 85.335 348.467 78.257 C 348.408 69.927,348.602 70.639,346.362 70.532 L 344.883 70.462 344.775 68.204 C 344.715 66.963,344.662 64.965,344.657 63.765 C 344.638 59.700,344.450 59.324,342.369 59.203 L 341.051 59.127 340.931 54.522 C 340.759 47.893,340.814 48.054,338.613 47.781 L 337.199 47.606 337.141 44.039 C 337.072 39.765,337.202 40.000,334.893 40.000 L 333.350 40.000 333.300 34.508 C 333.269 31.137,333.186 28.952,333.083 28.851 C 332.992 28.760,332.150 28.634,331.214 28.570 L 329.511 28.453 329.464 26.685 L 329.417 24.917 328.333 24.811 C 327.027 24.684,312.511 24.694,309.305 24.824 M343.417 24.789 C 340.833 24.855,340.999 24.595,341.003 28.574 C 341.006 32.467,340.878 32.236,343.058 32.306 L 344.795 32.363 344.869 37.306 C 344.963 43.514,344.902 43.355,347.296 43.591 L 348.463 43.706 348.563 44.311 C 348.618 44.644,348.664 46.014,348.665 47.354 C 348.668 51.163,348.645 51.123,350.898 51.282 L 352.287 51.380 352.405 54.898 C 352.544 59.069,352.415 58.825,354.543 58.952 L 356.134 59.047 356.192 62.613 C 356.260 66.795,356.091 66.494,358.375 66.497 L 360.000 66.500 360.000 75.921 L 360.000 85.342 360.442 85.510 C 360.973 85.712,378.475 85.653,378.792 85.448 C 378.954 85.343,379.000 83.254,379.000 75.928 L 379.000 66.543 380.338 66.426 C 382.709 66.220,382.811 65.900,382.826 58.625 L 382.833 55.167 384.385 55.167 C 386.707 55.167,386.573 55.408,386.634 51.097 L 386.685 47.500 388.227 47.500 C 390.522 47.500,390.388 47.743,390.471 43.436 L 390.541 39.833 391.945 39.833 C 393.842 39.833,394.167 39.546,394.167 37.867 C 394.167 37.236,394.215 35.704,394.275 34.463 L 394.383 32.207 395.720 32.129 C 397.471 32.028,397.751 31.746,397.923 29.906 C 398.162 27.360,397.809 25.443,397.050 25.154 C 395.961 24.740,381.688 24.495,377.000 24.810 L 375.417 24.917 375.377 25.750 C 375.355 26.208,375.294 27.045,375.240 27.609 L 375.144 28.634 373.661 28.692 C 371.500 28.776,371.595 28.591,371.527 32.839 L 371.471 36.333 370.397 36.333 C 368.441 36.333,368.027 36.652,367.852 38.299 C 367.752 39.234,367.711 38.880,367.598 36.130 C 367.441 32.274,367.575 32.508,365.442 32.380 L 363.866 32.286 363.808 28.720 C 363.764 26.014,363.697 25.122,363.532 25.020 C 363.052 24.723,351.305 24.589,343.417 24.789 M184.788 39.455 C 184.752 39.800,184.722 39.558,184.721 38.917 C 184.721 38.275,184.750 37.992,184.787 38.288 C 184.824 38.584,184.824 39.109,184.788 39.455 M211.561 44.440 C 211.619 44.865,211.667 45.424,211.667 45.682 C 211.667 46.879,212.164 47.218,214.208 47.417 L 215.333 47.527 215.333 48.659 C 215.333 50.996,215.450 51.132,217.588 51.283 L 219.000 51.383 219.000 55.170 L 219.000 58.957 217.536 59.072 C 215.484 59.232,215.333 59.404,215.333 61.591 C 215.333 63.001,215.414 62.936,213.548 63.044 C 211.984 63.134,211.812 63.359,211.576 65.625 L 211.467 66.667 209.484 66.667 L 207.500 66.667 207.500 65.115 C 207.500 63.000,207.456 62.952,205.461 62.865 L 203.883 62.796 203.768 59.557 C 203.612 55.181,203.818 55.512,201.083 55.224 L 199.917 55.101 201.255 54.992 C 203.525 54.808,203.576 54.713,203.762 50.307 L 203.880 47.531 205.454 47.474 C 207.437 47.402,207.500 47.335,207.500 45.308 L 207.500 43.846 208.958 43.791 C 209.760 43.760,210.650 43.720,210.936 43.701 C 211.433 43.668,211.459 43.698,211.561 44.440 M267.772 43.772 L 268.627 43.875 268.704 46.896 C 268.807 50.956,268.817 50.973,271.000 51.149 L 272.250 51.250 272.295 55.187 L 272.339 59.123 270.993 59.201 C 268.846 59.326,268.694 59.648,268.677 64.125 L 268.667 66.667 264.833 66.667 L 261.000 66.667 261.000 55.167 L 261.000 43.667 263.958 43.668 C 265.585 43.669,267.301 43.716,267.772 43.772 M318.487 62.388 C 318.594 62.495,319.297 62.627,320.049 62.680 L 321.417 62.777 319.708 62.805 L 318.000 62.833 318.022 61.542 L 318.044 60.250 318.168 61.221 C 318.236 61.755,318.380 62.280,318.487 62.388 " stroke="none" fill="#ffffff" fill-rule="evenodd"></path><path id="path3" d="M2.974 24.781 L 2.032 24.849 1.921 26.716 C 1.762 29.409,1.890 85.279,2.056 85.444 C 2.237 85.626,20.596 85.626,20.778 85.444 C 21.029 85.194,20.951 25.218,20.700 24.967 C 20.488 24.755,5.502 24.597,2.974 24.781 M40.047 24.824 C 36.340 24.937,36.453 24.872,36.333 26.964 L 36.250 28.417 34.583 28.542 C 32.457 28.703,32.500 28.682,32.500 29.554 C 32.500 29.956,32.452 30.745,32.393 31.309 L 32.286 32.333 30.904 32.333 C 28.671 32.333,28.687 32.319,28.631 34.452 L 28.583 36.250 27.333 36.342 C 24.690 36.538,24.925 34.839,24.868 54.167 C 24.807 74.730,24.716 73.830,26.869 73.955 C 28.799 74.068,28.667 73.924,28.667 75.914 C 28.667 78.014,28.653 78.000,30.802 78.000 L 32.294 78.000 32.414 79.760 C 32.556 81.847,32.541 81.833,34.746 81.833 L 36.137 81.833 36.248 83.292 C 36.392 85.176,36.436 85.308,36.969 85.458 C 37.215 85.527,43.845 85.583,51.702 85.583 C 68.343 85.583,66.531 85.846,66.637 83.418 L 66.706 81.833 68.238 81.833 C 70.362 81.833,70.402 81.795,70.474 79.680 L 70.531 78.000 72.141 77.997 C 74.456 77.994,74.250 78.539,74.247 72.407 C 74.244 66.177,74.429 66.667,72.073 66.667 L 70.544 66.667 70.465 64.901 C 70.371 62.783,70.430 62.839,68.317 62.836 L 66.717 62.833 66.611 61.217 C 66.463 58.972,66.662 59.083,62.814 59.083 C 58.988 59.083,59.167 58.976,59.167 61.267 L 59.167 62.803 57.410 62.860 C 55.290 62.928,55.339 62.877,55.336 65.042 L 55.333 66.667 53.356 66.667 L 51.379 66.667 51.265 65.407 C 51.076 63.324,50.746 63.000,48.814 63.000 C 47.599 63.000,47.500 62.845,47.500 60.948 C 47.500 59.155,47.441 59.102,45.391 59.026 L 43.833 58.968 43.833 55.175 L 43.833 51.383 45.245 51.283 C 47.550 51.121,47.430 51.347,47.594 46.814 L 47.701 43.877 49.746 43.798 C 50.870 43.755,52.588 43.755,53.562 43.798 L 55.333 43.877 55.333 45.323 C 55.333 47.351,55.385 47.402,57.486 47.474 L 59.167 47.531 59.167 49.067 C 59.167 51.357,58.988 51.250,62.814 51.250 C 66.677 51.250,66.485 51.358,66.620 49.107 L 66.716 47.500 68.316 47.497 C 70.430 47.494,70.371 47.551,70.465 45.432 L 70.544 43.667 78.102 43.667 L 85.660 43.667 85.705 64.486 C 85.730 75.937,85.813 85.368,85.889 85.444 C 86.138 85.693,104.283 85.617,104.533 85.367 C 104.708 85.192,104.760 81.152,104.800 64.408 L 104.850 43.667 111.734 43.667 C 118.743 43.667,119.501 43.607,119.771 43.030 C 120.044 42.449,120.046 25.451,119.774 25.083 C 119.390 24.566,71.115 24.556,70.737 25.074 C 70.570 25.302,70.500 25.886,70.500 27.053 L 70.500 28.708 69.979 28.604 C 69.693 28.547,68.840 28.500,68.085 28.500 L 66.712 28.500 66.628 26.889 C 66.564 25.674,66.478 25.229,66.277 25.082 C 65.766 24.709,49.199 24.546,40.047 24.824 M138.035 24.820 C 136.179 24.895,135.618 24.972,135.490 25.167 C 135.239 25.552,135.366 42.122,135.625 42.711 C 135.989 43.540,136.240 43.569,143.625 43.632 L 150.500 43.690 150.503 64.387 C 150.504 77.132,150.566 85.179,150.663 85.333 C 150.857 85.641,168.275 85.808,169.058 85.510 L 169.500 85.342 169.500 64.504 L 169.500 43.667 175.246 43.667 L 180.992 43.667 181.038 56.742 C 181.090 71.809,180.842 70.227,183.165 70.307 L 184.815 70.364 184.866 73.843 C 184.928 78.066,184.808 77.844,187.070 77.962 L 188.667 78.045 188.667 79.504 C 188.667 81.524,188.769 81.630,190.852 81.771 L 192.455 81.879 192.559 83.115 C 192.781 85.738,192.252 85.661,209.917 85.648 C 227.580 85.635,226.381 85.801,226.573 83.350 L 226.689 81.871 228.342 81.805 C 230.381 81.723,230.364 81.740,230.464 79.675 L 230.545 78.000 232.033 78.000 C 234.116 78.000,234.095 78.020,234.236 75.975 C 234.379 73.893,234.311 74.000,235.485 74.000 C 237.813 74.000,237.831 73.960,238.035 68.167 C 238.218 62.982,238.079 39.187,237.858 37.946 C 237.642 36.727,237.277 36.461,235.693 36.369 L 234.367 36.292 234.225 34.445 C 234.060 32.289,234.158 32.378,231.897 32.350 L 230.545 32.333 230.464 30.658 C 230.365 28.614,230.448 28.698,228.385 28.563 L 226.697 28.452 226.587 27.101 C 226.440 25.311,226.407 25.226,225.785 25.005 C 224.415 24.519,194.728 24.643,193.468 25.140 C 192.854 25.383,192.681 25.779,192.559 27.225 C 192.438 28.661,192.428 28.667,190.322 28.667 C 188.817 28.667,188.667 28.867,188.667 30.870 L 188.667 32.333 187.792 32.348 C 186.065 32.377,185.273 32.555,185.072 32.959 C 184.926 33.252,184.863 32.427,184.788 29.230 C 184.724 26.539,184.627 25.060,184.504 24.937 C 184.303 24.736,142.697 24.632,138.035 24.820 M242.974 24.789 L 242.032 24.849 241.921 26.716 C 241.762 29.409,241.890 85.279,242.056 85.444 C 242.132 85.521,250.548 85.583,260.758 85.583 C 282.310 85.583,279.864 85.859,279.970 83.418 L 280.040 81.833 281.571 81.833 C 283.696 81.833,283.735 81.795,283.807 79.680 L 283.865 78.000 285.360 78.000 C 287.463 78.000,287.444 78.018,287.585 75.943 L 287.703 74.214 289.097 74.115 C 291.642 73.936,291.416 75.788,291.416 55.083 C 291.416 34.643,291.628 36.434,289.186 36.243 L 287.704 36.127 287.585 34.386 C 287.445 32.323,287.456 32.333,285.255 32.333 L 283.865 32.333 283.807 30.675 C 283.736 28.622,283.750 28.636,281.697 28.537 L 280.043 28.458 279.960 26.867 C 279.850 24.764,280.194 24.908,274.963 24.777 C 270.578 24.667,244.749 24.677,242.974 24.789 M309.305 24.824 C 308.052 24.875,306.964 24.979,306.888 25.055 C 306.812 25.132,306.727 27.663,306.700 30.680 L 306.650 36.167 305.107 36.167 C 302.797 36.167,302.928 35.930,302.861 40.217 L 302.805 43.794 302.194 43.895 C 301.858 43.951,301.336 43.997,301.033 43.998 C 300.364 44.000,299.583 44.382,299.421 44.786 C 299.264 45.178,299.018 49.985,299.008 52.853 L 299.000 55.123 298.375 55.226 C 298.031 55.283,297.402 55.330,296.977 55.331 C 295.332 55.335,295.337 55.305,295.185 65.442 L 295.167 66.634 293.591 66.692 C 291.415 66.772,291.592 66.269,291.535 72.569 L 291.487 77.956 289.801 78.037 C 288.417 78.104,288.074 78.173,287.890 78.424 C 287.559 78.877,287.570 84.804,287.903 85.260 C 288.206 85.674,309.788 85.778,310.200 85.367 C 310.361 85.206,310.430 84.229,310.470 81.575 L 310.524 78.000 318.069 78.000 L 325.615 78.000 325.723 80.375 C 325.783 81.681,325.832 83.245,325.833 83.849 C 325.834 85.735,324.828 85.574,337.059 85.639 C 344.301 85.677,347.729 85.638,348.050 85.515 L 348.517 85.335 348.467 78.257 C 348.408 69.927,348.602 70.639,346.362 70.532 L 344.883 70.462 344.775 68.204 C 344.715 66.963,344.662 64.965,344.657 63.765 C 344.638 59.700,344.450 59.324,342.369 59.203 L 341.051 59.127 340.931 54.522 C 340.759 47.893,340.814 48.054,338.613 47.781 L 337.199 47.606 337.141 44.039 C 337.072 39.765,337.202 40.000,334.893 40.000 L 333.350 40.000 333.300 34.508 C 333.269 31.137,333.186 28.952,333.083 28.851 C 332.992 28.760,332.150 28.634,331.214 28.570 L 329.511 28.453 329.464 26.685 L 329.417 24.917 328.333 24.811 C 327.027 24.684,312.511 24.694,309.305 24.824 M343.417 24.789 C 340.833 24.855,340.999 24.595,341.003 28.574 C 341.006 32.467,340.878 32.236,343.058 32.306 L 344.795 32.363 344.869 37.306 C 344.963 43.514,344.902 43.355,347.296 43.591 L 348.463 43.706 348.563 44.311 C 348.618 44.644,348.664 46.014,348.665 47.354 C 348.668 51.163,348.645 51.123,350.898 51.282 L 352.287 51.380 352.405 54.898 C 352.544 59.069,352.415 58.825,354.543 58.952 L 356.134 59.047 356.192 62.613 C 356.260 66.795,356.091 66.494,358.375 66.497 L 360.000 66.500 360.000 75.921 L 360.000 85.342 360.442 85.510 C 360.973 85.712,378.475 85.653,378.792 85.448 C 378.954 85.343,379.000 83.254,379.000 75.928 L 379.000 66.543 380.338 66.426 C 382.709 66.220,382.811 65.900,382.826 58.625 L 382.833 55.167 384.385 55.167 C 386.707 55.167,386.573 55.408,386.634 51.097 L 386.685 47.500 388.227 47.500 C 390.522 47.500,390.388 47.743,390.471 43.436 L 390.541 39.833 391.945 39.833 C 393.842 39.833,394.167 39.546,394.167 37.867 C 394.167 37.236,394.215 35.704,394.275 34.463 L 394.383 32.207 395.720 32.129 C 397.471 32.028,397.751 31.746,397.923 29.906 C 398.162 27.360,397.809 25.443,397.050 25.154 C 395.961 24.740,381.688 24.495,377.000 24.810 L 375.417 24.917 375.377 25.750 C 375.355 26.208,375.294 27.045,375.240 27.609 L 375.144 28.634 373.661 28.692 C 371.500 28.776,371.595 28.591,371.527 32.839 L 371.471 36.333 370.397 36.333 C 368.441 36.333,368.027 36.652,367.852 38.299 C 367.752 39.234,367.711 38.880,367.598 36.130 C 367.441 32.274,367.575 32.508,365.442 32.380 L 363.866 32.286 363.808 28.720 C 363.764 26.014,363.697 25.122,363.532 25.020 C 363.052 24.723,351.305 24.589,343.417 24.789 M184.788 39.455 C 184.752 39.800,184.722 39.558,184.721 38.917 C 184.721 38.275,184.750 37.992,184.787 38.288 C 184.824 38.584,184.824 39.109,184.788 39.455 M211.561 44.440 C 211.619 44.865,211.667 45.424,211.667 45.682 C 211.667 46.879,212.164 47.218,214.208 47.417 L 215.333 47.527 215.333 48.659 C 215.333 50.996,215.450 51.132,217.588 51.283 L 219.000 51.383 219.000 55.170 L 219.000 58.957 217.536 59.072 C 215.484 59.232,215.333 59.404,215.333 61.591 C 215.333 63.001,215.414 62.936,213.548 63.044 C 211.984 63.134,211.812 63.359,211.576 65.625 L 211.467 66.667 209.484 66.667 L 207.500 66.667 207.500 65.115 C 207.500 63.000,207.456 62.952,205.461 62.865 L 203.883 62.796 203.768 59.557 C 203.612 55.181,203.818 55.512,201.083 55.224 L 199.917 55.101 201.255 54.992 C 203.525 54.808,203.576 54.713,203.762 50.307 L 203.880 47.531 205.454 47.474 C 207.437 47.402,207.500 47.335,207.500 45.308 L 207.500 43.846 208.958 43.791 C 209.760 43.760,210.650 43.720,210.936 43.701 C 211.433 43.668,211.459 43.698,211.561 44.440 M267.772 43.772 L 268.627 43.875 268.704 46.896 C 268.807 50.956,268.817 50.973,271.000 51.149 L 272.250 51.250 272.295 55.187 L 272.339 59.123 270.993 59.201 C 268.846 59.326,268.694 59.648,268.677 64.125 L 268.667 66.667 264.833 66.667 L 261.000 66.667 261.000 55.167 L 261.000 43.667 263.958 43.668 C 265.585 43.669,267.301 43.716,267.772 43.772 M318.487 62.388 C 318.594 62.495,319.297 62.627,320.049 62.680 L 321.417 62.777 319.708 62.805 L 318.000 62.833 318.022 61.542 L 318.044 60.250 318.168 61.221 C 318.236 61.755,318.380 62.280,318.487 62.388 " stroke="none" fill="#ffffff" fill-rule="evenodd"></path><path id="path4" d="M2.974 24.781 L 2.032 24.849 1.921 26.716 C 1.762 29.409,1.890 85.279,2.056 85.444 C 2.237 85.626,20.596 85.626,20.778 85.444 C 21.029 85.194,20.951 25.218,20.700 24.967 C 20.488 24.755,5.502 24.597,2.974 24.781 M40.047 24.824 C 36.340 24.937,36.453 24.872,36.333 26.964 L 36.250 28.417 34.583 28.542 C 32.457 28.703,32.500 28.682,32.500 29.554 C 32.500 29.956,32.452 30.745,32.393 31.309 L 32.286 32.333 30.904 32.333 C 28.671 32.333,28.687 32.319,28.631 34.452 L 28.583 36.250 27.333 36.342 C 24.690 36.538,24.925 34.839,24.868 54.167 C 24.807 74.730,24.716 73.830,26.869 73.955 C 28.799 74.068,28.667 73.924,28.667 75.914 C 28.667 78.014,28.653 78.000,30.802 78.000 L 32.294 78.000 32.414 79.760 C 32.556 81.847,32.541 81.833,34.746 81.833 L 36.137 81.833 36.248 83.292 C 36.392 85.176,36.436 85.308,36.969 85.458 C 37.215 85.527,43.845 85.583,51.702 85.583 C 68.343 85.583,66.531 85.846,66.637 83.418 L 66.706 81.833 68.238 81.833 C 70.362 81.833,70.402 81.795,70.474 79.680 L 70.531 78.000 72.141 77.997 C 74.456 77.994,74.250 78.539,74.247 72.407 C 74.244 66.177,74.429 66.667,72.073 66.667 L 70.544 66.667 70.465 64.901 C 70.371 62.783,70.430 62.839,68.317 62.836 L 66.717 62.833 66.611 61.217 C 66.463 58.972,66.662 59.083,62.814 59.083 C 58.988 59.083,59.167 58.976,59.167 61.267 L 59.167 62.803 57.410 62.860 C 55.290 62.928,55.339 62.877,55.336 65.042 L 55.333 66.667 53.356 66.667 L 51.379 66.667 51.265 65.407 C 51.076 63.324,50.746 63.000,48.814 63.000 C 47.599 63.000,47.500 62.845,47.500 60.948 C 47.500 59.155,47.441 59.102,45.391 59.026 L 43.833 58.968 43.833 55.175 L 43.833 51.383 45.245 51.283 C 47.550 51.121,47.430 51.347,47.594 46.814 L 47.701 43.877 49.746 43.798 C 50.870 43.755,52.588 43.755,53.562 43.798 L 55.333 43.877 55.333 45.323 C 55.333 47.351,55.385 47.402,57.486 47.474 L 59.167 47.531 59.167 49.067 C 59.167 51.357,58.988 51.250,62.814 51.250 C 66.677 51.250,66.485 51.358,66.620 49.107 L 66.716 47.500 68.316 47.497 C 70.430 47.494,70.371 47.551,70.465 45.432 L 70.544 43.667 78.102 43.667 L 85.660 43.667 85.705 64.486 C 85.730 75.937,85.813 85.368,85.889 85.444 C 86.138 85.693,104.283 85.617,104.533 85.367 C 104.708 85.192,104.760 81.152,104.800 64.408 L 104.850 43.667 111.734 43.667 C 118.743 43.667,119.501 43.607,119.771 43.030 C 120.044 42.449,120.046 25.451,119.774 25.083 C 119.390 24.566,71.115 24.556,70.737 25.074 C 70.570 25.302,70.500 25.886,70.500 27.053 L 70.500 28.708 69.979 28.604 C 69.693 28.547,68.840 28.500,68.085 28.500 L 66.712 28.500 66.628 26.889 C 66.564 25.674,66.478 25.229,66.277 25.082 C 65.766 24.709,49.199 24.546,40.047 24.824 M138.035 24.820 C 136.179 24.895,135.618 24.972,135.490 25.167 C 135.239 25.552,135.366 42.122,135.625 42.711 C 135.989 43.540,136.240 43.569,143.625 43.632 L 150.500 43.690 150.503 64.387 C 150.504 77.132,150.566 85.179,150.663 85.333 C 150.857 85.641,168.275 85.808,169.058 85.510 L 169.500 85.342 169.500 64.504 L 169.500 43.667 175.246 43.667 L 180.992 43.667 181.038 56.742 C 181.090 71.809,180.842 70.227,183.165 70.307 L 184.815 70.364 184.866 73.843 C 184.928 78.066,184.808 77.844,187.070 77.962 L 188.667 78.045 188.667 79.504 C 188.667 81.524,188.769 81.630,190.852 81.771 L 192.455 81.879 192.559 83.115 C 192.781 85.738,192.252 85.661,209.917 85.648 C 227.580 85.635,226.381 85.801,226.573 83.350 L 226.689 81.871 228.342 81.805 C 230.381 81.723,230.364 81.740,230.464 79.675 L 230.545 78.000 232.033 78.000 C 234.116 78.000,234.095 78.020,234.236 75.975 C 234.379 73.893,234.311 74.000,235.485 74.000 C 237.813 74.000,237.831 73.960,238.035 68.167 C 238.218 62.982,238.079 39.187,237.858 37.946 C 237.642 36.727,237.277 36.461,235.693 36.369 L 234.367 36.292 234.225 34.445 C 234.060 32.289,234.158 32.378,231.897 32.350 L 230.545 32.333 230.464 30.658 C 230.365 28.614,230.448 28.698,228.385 28.563 L 226.697 28.452 226.587 27.101 C 226.440 25.311,226.407 25.226,225.785 25.005 C 224.415 24.519,194.728 24.643,193.468 25.140 C 192.854 25.383,192.681 25.779,192.559 27.225 C 192.438 28.661,192.428 28.667,190.322 28.667 C 188.817 28.667,188.667 28.867,188.667 30.870 L 188.667 32.333 187.792 32.348 C 186.065 32.377,185.273 32.555,185.072 32.959 C 184.926 33.252,184.863 32.427,184.788 29.230 C 184.724 26.539,184.627 25.060,184.504 24.937 C 184.303 24.736,142.697 24.632,138.035 24.820 M242.974 24.789 L 242.032 24.849 241.921 26.716 C 241.762 29.409,241.890 85.279,242.056 85.444 C 242.132 85.521,250.548 85.583,260.758 85.583 C 282.310 85.583,279.864 85.859,279.970 83.418 L 280.040 81.833 281.571 81.833 C 283.696 81.833,283.735 81.795,283.807 79.680 L 283.865 78.000 285.360 78.000 C 287.463 78.000,287.444 78.018,287.585 75.943 L 287.703 74.214 289.097 74.115 C 291.642 73.936,291.416 75.788,291.416 55.083 C 291.416 34.643,291.628 36.434,289.186 36.243 L 287.704 36.127 287.585 34.386 C 287.445 32.323,287.456 32.333,285.255 32.333 L 283.865 32.333 283.807 30.675 C 283.736 28.622,283.750 28.636,281.697 28.537 L 280.043 28.458 279.960 26.867 C 279.850 24.764,280.194 24.908,274.963 24.777 C 270.578 24.667,244.749 24.677,242.974 24.789 M309.305 24.824 C 308.052 24.875,306.964 24.979,306.888 25.055 C 306.812 25.132,306.727 27.663,306.700 30.680 L 306.650 36.167 305.107 36.167 C 302.797 36.167,302.928 35.930,302.861 40.217 L 302.805 43.794 302.194 43.895 C 301.858 43.951,301.336 43.997,301.033 43.998 C 300.364 44.000,299.583 44.382,299.421 44.786 C 299.264 45.178,299.018 49.985,299.008 52.853 L 299.000 55.123 298.375 55.226 C 298.031 55.283,297.402 55.330,296.977 55.331 C 295.332 55.335,295.337 55.305,295.185 65.442 L 295.167 66.634 293.591 66.692 C 291.415 66.772,291.592 66.269,291.535 72.569 L 291.487 77.956 289.801 78.037 C 288.417 78.104,288.074 78.173,287.890 78.424 C 287.559 78.877,287.570 84.804,287.903 85.260 C 288.206 85.674,309.788 85.778,310.200 85.367 C 310.361 85.206,310.430 84.229,310.470 81.575 L 310.524 78.000 318.069 78.000 L 325.615 78.000 325.723 80.375 C 325.783 81.681,325.832 83.245,325.833 83.849 C 325.834 85.735,324.828 85.574,337.059 85.639 C 344.301 85.677,347.729 85.638,348.050 85.515 L 348.517 85.335 348.467 78.257 C 348.408 69.927,348.602 70.639,346.362 70.532 L 344.883 70.462 344.775 68.204 C 344.715 66.963,344.662 64.965,344.657 63.765 C 344.638 59.700,344.450 59.324,342.369 59.203 L 341.051 59.127 340.931 54.522 C 340.759 47.893,340.814 48.054,338.613 47.781 L 337.199 47.606 337.141 44.039 C 337.072 39.765,337.202 40.000,334.893 40.000 L 333.350 40.000 333.300 34.508 C 333.269 31.137,333.186 28.952,333.083 28.851 C 332.992 28.760,332.150 28.634,331.214 28.570 L 329.511 28.453 329.464 26.685 L 329.417 24.917 328.333 24.811 C 327.027 24.684,312.511 24.694,309.305 24.824 M343.417 24.789 C 340.833 24.855,340.999 24.595,341.003 28.574 C 341.006 32.467,340.878 32.236,343.058 32.306 L 344.795 32.363 344.869 37.306 C 344.963 43.514,344.902 43.355,347.296 43.591 L 348.463 43.706 348.563 44.311 C 348.618 44.644,348.664 46.014,348.665 47.354 C 348.668 51.163,348.645 51.123,350.898 51.282 L 352.287 51.380 352.405 54.898 C 352.544 59.069,352.415 58.825,354.543 58.952 L 356.134 59.047 356.192 62.613 C 356.260 66.795,356.091 66.494,358.375 66.497 L 360.000 66.500 360.000 75.921 L 360.000 85.342 360.442 85.510 C 360.973 85.712,378.475 85.653,378.792 85.448 C 378.954 85.343,379.000 83.254,379.000 75.928 L 379.000 66.543 380.338 66.426 C 382.709 66.220,382.811 65.900,382.826 58.625 L 382.833 55.167 384.385 55.167 C 386.707 55.167,386.573 55.408,386.634 51.097 L 386.685 47.500 388.227 47.500 C 390.522 47.500,390.388 47.743,390.471 43.436 L 390.541 39.833 391.945 39.833 C 393.842 39.833,394.167 39.546,394.167 37.867 C 394.167 37.236,394.215 35.704,394.275 34.463 L 394.383 32.207 395.720 32.129 C 397.471 32.028,397.751 31.746,397.923 29.906 C 398.162 27.360,397.809 25.443,397.050 25.154 C 395.961 24.740,381.688 24.495,377.000 24.810 L 375.417 24.917 375.377 25.750 C 375.355 26.208,375.294 27.045,375.240 27.609 L 375.144 28.634 373.661 28.692 C 371.500 28.776,371.595 28.591,371.527 32.839 L 371.471 36.333 370.397 36.333 C 368.441 36.333,368.027 36.652,367.852 38.299 C 367.752 39.234,367.711 38.880,367.598 36.130 C 367.441 32.274,367.575 32.508,365.442 32.380 L 363.866 32.286 363.808 28.720 C 363.764 26.014,363.697 25.122,363.532 25.020 C 363.052 24.723,351.305 24.589,343.417 24.789 M184.788 39.455 C 184.752 39.800,184.722 39.558,184.721 38.917 C 184.721 38.275,184.750 37.992,184.787 38.288 C 184.824 38.584,184.824 39.109,184.788 39.455 M211.561 44.440 C 211.619 44.865,211.667 45.424,211.667 45.682 C 211.667 46.879,212.164 47.218,214.208 47.417 L 215.333 47.527 215.333 48.659 C 215.333 50.996,215.450 51.132,217.588 51.283 L 219.000 51.383 219.000 55.170 L 219.000 58.957 217.536 59.072 C 215.484 59.232,215.333 59.404,215.333 61.591 C 215.333 63.001,215.414 62.936,213.548 63.044 C 211.984 63.134,211.812 63.359,211.576 65.625 L 211.467 66.667 209.484 66.667 L 207.500 66.667 207.500 65.115 C 207.500 63.000,207.456 62.952,205.461 62.865 L 203.883 62.796 203.768 59.557 C 203.612 55.181,203.818 55.512,201.083 55.224 L 199.917 55.101 201.255 54.992 C 203.525 54.808,203.576 54.713,203.762 50.307 L 203.880 47.531 205.454 47.474 C 207.437 47.402,207.500 47.335,207.500 45.308 L 207.500 43.846 208.958 43.791 C 209.760 43.760,210.650 43.720,210.936 43.701 C 211.433 43.668,211.459 43.698,211.561 44.440 M267.772 43.772 L 268.627 43.875 268.704 46.896 C 268.807 50.956,268.817 50.973,271.000 51.149 L 272.250 51.250 272.295 55.187 L 272.339 59.123 270.993 59.201 C 268.846 59.326,268.694 59.648,268.677 64.125 L 268.667 66.667 264.833 66.667 L 261.000 66.667 261.000 55.167 L 261.000 43.667 263.958 43.668 C 265.585 43.669,267.301 43.716,267.772 43.772 M318.487 62.388 C 318.594 62.495,319.297 62.627,320.049 62.680 L 321.417 62.777 319.708 62.805 L 318.000 62.833 318.022 61.542 L 318.044 60.250 318.168 61.221 C 318.236 61.755,318.380 62.280,318.487 62.388 " stroke="none" fill="#ffffff" fill-rule="evenodd"></path></g></svg>