<svg id="svg" version="1.1" width="400" height="114.28571428571429" xmlns="http://www.w3.org/2000/svg" xmlns:xlink="http://www.w3.org/1999/xlink" style="display: block;"><g id="svgg"><path id="path0" d="M1.500 59.917 L 1.500 89.833 10.000 89.833 L 18.500 89.833 18.500 59.917 L 18.500 30.000 10.000 30.000 L 1.500 30.000 1.500 59.917 M39.167 30.121 C 38.751 30.280,38.672 30.533,38.669 31.708 L 38.667 32.833 37.292 32.842 C 33.636 32.865,33.000 33.147,33.000 34.747 L 33.000 35.623 31.741 35.704 C 30.188 35.803,30.137 35.854,30.037 37.408 L 29.956 38.667 29.153 38.667 C 27.422 38.667,27.333 38.817,27.210 41.958 L 27.118 44.333 26.091 44.333 C 24.236 44.333,24.424 42.757,24.366 58.778 C 24.302 76.500,24.185 75.349,26.063 75.469 L 27.167 75.539 27.179 77.228 C 27.204 80.704,27.350 81.043,28.883 81.167 L 29.917 81.250 30.027 82.492 C 30.164 84.019,30.324 84.167,31.846 84.167 L 32.961 84.167 33.030 85.250 C 33.131 86.838,33.437 86.980,36.792 86.993 L 38.667 87.000 38.667 88.217 C 38.667 89.992,37.430 89.833,51.246 89.833 C 65.368 89.833,64.167 89.989,64.167 88.157 L 64.167 87.000 66.042 86.993 C 69.397 86.980,69.702 86.838,69.803 85.250 L 69.872 84.167 71.019 84.167 C 72.561 84.167,72.833 83.908,72.833 82.441 L 72.833 81.381 74.038 81.269 C 75.623 81.122,75.583 81.194,75.583 78.500 C 75.583 75.782,75.605 75.820,74.018 75.707 L 72.846 75.623 72.798 74.270 L 72.750 72.917 71.400 72.869 L 70.049 72.821 69.932 70.452 C 69.781 67.384,69.631 67.167,67.665 67.167 L 67.039 67.167 66.970 66.081 C 66.875 64.586,66.689 64.432,64.901 64.358 C 62.050 64.239,61.741 64.405,61.559 66.153 L 61.454 67.154 60.102 67.202 L 58.750 67.250 58.702 68.621 L 58.653 69.992 55.868 70.038 L 53.083 70.083 52.893 71.167 C 52.724 72.131,52.701 72.174,52.685 71.560 C 52.650 70.226,52.393 70.098,49.600 70.026 L 47.167 69.963 47.167 68.992 C 47.167 67.296,47.054 67.167,45.587 67.167 L 44.333 67.167 44.333 60.026 L 44.333 52.885 45.625 52.734 L 46.917 52.583 47.065 51.311 L 47.214 50.039 47.964 49.936 C 48.376 49.880,48.930 49.833,49.194 49.833 C 49.788 49.833,50.000 49.369,50.000 48.072 L 50.000 47.167 51.480 47.167 L 52.960 47.167 53.033 48.172 C 53.141 49.669,53.212 49.709,56.166 49.892 L 58.667 50.048 58.667 51.278 C 58.667 52.718,58.802 52.833,60.492 52.833 L 61.462 52.833 61.529 54.010 C 61.607 55.385,61.659 55.437,63.142 55.596 C 65.685 55.868,66.999 55.502,67.002 54.521 C 67.003 54.189,67.050 53.635,67.107 53.292 L 67.210 52.667 68.087 52.667 C 69.689 52.667,69.960 52.045,69.990 48.292 L 70.000 47.000 71.325 47.000 C 72.411 47.000,72.681 46.947,72.820 46.708 C 72.982 46.431,72.990 46.431,72.995 46.708 C 73.000 46.981,73.450 47.000,80.083 47.000 L 87.167 47.000 87.167 68.417 L 87.167 89.833 95.649 89.833 C 103.230 89.833,104.142 89.805,104.232 89.570 C 104.288 89.425,104.333 79.788,104.333 68.155 L 104.333 47.004 111.375 46.960 L 118.417 46.917 118.460 38.458 L 118.503 30.000 95.769 30.000 C 75.193 30.000,73.026 30.025,72.934 30.264 C 72.879 30.409,72.833 31.761,72.833 33.269 C 72.833 35.929,72.824 36.007,72.511 35.839 C 72.334 35.744,71.706 35.667,71.117 35.667 L 70.045 35.667 69.960 34.488 C 69.846 32.893,69.908 32.925,66.929 32.864 L 64.374 32.810 64.260 31.502 C 64.178 30.563,64.075 30.167,63.893 30.097 C 63.566 29.972,39.498 29.995,39.167 30.121 M141.540 38.458 L 141.583 46.917 148.625 46.960 L 155.667 47.004 155.667 68.155 C 155.667 79.788,155.712 89.425,155.768 89.570 C 155.858 89.805,156.770 89.833,164.351 89.833 L 172.833 89.833 172.833 68.417 L 172.833 47.000 179.904 47.000 C 186.499 47.000,186.981 46.980,187.052 46.708 C 187.094 46.548,187.137 47.850,187.147 49.603 L 187.167 52.789 185.988 52.873 C 184.294 52.994,184.417 52.441,184.417 59.938 C 184.417 67.546,184.285 67.000,186.115 67.000 L 187.167 67.000 187.169 71.042 C 187.172 75.761,187.093 75.524,188.713 75.628 L 189.960 75.708 190.030 78.190 C 190.114 81.114,190.121 81.128,191.696 81.275 L 192.790 81.377 192.898 82.564 C 193.029 84.006,193.200 84.167,194.596 84.167 C 195.776 84.167,195.827 84.233,195.831 85.786 C 195.834 86.954,195.953 87.000,198.982 87.000 L 201.487 87.000 201.535 88.375 L 201.583 89.750 214.104 89.793 C 224.361 89.828,226.657 89.795,226.808 89.614 C 226.909 89.492,227.041 88.863,227.101 88.217 L 227.211 87.041 229.480 86.967 C 232.492 86.869,232.505 86.862,232.750 84.967 L 232.851 84.184 233.634 84.083 C 235.530 83.838,235.536 83.828,235.635 80.792 L 235.709 78.500 236.841 78.500 C 238.524 78.500,238.500 78.522,238.500 76.918 L 238.500 75.539 239.585 75.470 C 241.263 75.363,241.210 75.497,241.381 70.960 C 241.583 65.582,241.421 45.915,241.169 45.220 C 240.946 44.610,240.341 44.333,239.225 44.333 L 238.500 44.333 238.499 42.292 C 238.498 39.053,238.283 38.667,236.489 38.667 L 235.667 38.667 235.667 37.532 C 235.667 35.985,235.513 35.814,234.036 35.708 L 232.847 35.623 232.748 34.853 C 232.508 32.996,232.580 33.040,229.539 32.895 L 227.210 32.784 227.102 31.600 C 226.942 29.849,228.159 30.000,214.168 30.000 C 200.252 30.000,201.500 29.841,201.500 31.617 L 201.500 32.833 199.125 32.850 C 196.013 32.872,195.928 32.897,195.874 33.840 C 195.851 34.249,195.793 34.819,195.745 35.107 L 195.658 35.631 194.424 35.693 C 192.916 35.769,192.968 35.718,192.871 37.224 L 192.793 38.453 191.528 38.601 C 189.986 38.782,190.040 38.664,190.017 41.958 L 190.000 44.333 188.681 44.333 C 187.781 44.333,187.334 44.400,187.277 44.542 C 187.231 44.656,187.187 41.550,187.180 37.639 C 187.173 33.727,187.121 30.409,187.066 30.264 C 186.974 30.025,184.807 30.000,164.231 30.000 L 141.497 30.000 141.540 38.458 M244.444 30.111 C 244.383 30.172,244.333 43.635,244.333 60.029 L 244.333 89.835 262.792 89.792 L 281.250 89.750 281.298 88.375 L 281.347 87.000 283.892 87.000 C 286.977 87.000,286.955 87.011,287.104 85.375 L 287.215 84.167 288.435 84.167 C 289.896 84.167,290.000 84.052,290.000 82.446 L 290.000 81.370 291.258 81.306 C 292.862 81.225,292.828 81.293,292.831 78.208 L 292.833 75.667 293.822 75.667 C 294.367 75.667,295.004 75.594,295.239 75.504 L 295.667 75.342 295.667 71.171 L 295.667 67.000 296.750 67.000 C 298.609 67.000,298.500 67.439,298.500 59.949 C 298.500 52.516,298.611 52.999,296.875 52.875 L 295.691 52.790 295.631 47.603 C 295.558 41.385,295.597 41.500,293.558 41.500 L 292.833 41.500 292.831 40.292 C 292.827 38.704,292.791 38.663,291.275 38.548 L 290.000 38.452 290.000 37.321 C 290.000 35.836,289.831 35.667,288.344 35.667 L 287.211 35.667 287.126 34.471 C 287.009 32.831,287.014 32.833,283.885 32.833 L 281.333 32.833 281.333 31.518 C 281.333 30.472,281.279 30.182,281.070 30.101 C 280.708 29.962,244.583 29.972,244.444 30.111 M312.998 30.423 C 312.907 30.661,312.833 31.928,312.833 33.239 L 312.833 35.624 311.680 35.737 C 310.027 35.900,310.093 35.717,310.026 40.359 L 309.969 44.333 308.860 44.336 C 307.150 44.340,307.257 44.054,307.200 48.744 L 307.150 52.833 305.942 52.833 C 304.291 52.833,304.333 52.752,304.333 55.950 L 304.333 58.667 303.511 58.667 C 301.603 58.667,301.502 58.919,301.501 63.708 L 301.500 67.167 300.359 67.167 C 298.739 67.167,298.667 67.275,298.667 69.695 C 298.667 70.751,298.618 72.518,298.559 73.623 L 298.451 75.632 297.312 75.696 C 295.728 75.786,295.807 75.569,295.706 80.133 L 295.619 84.126 294.390 84.205 C 293.714 84.248,293.106 84.339,293.039 84.406 C 292.881 84.563,292.879 89.158,293.037 89.543 C 293.150 89.819,293.740 89.833,302.954 89.793 L 312.750 89.750 312.798 88.375 L 312.847 87.000 313.995 87.000 C 315.672 87.000,315.667 87.009,315.667 83.905 L 315.667 81.333 322.811 81.333 L 329.955 81.333 330.041 82.529 C 330.146 83.997,330.326 84.167,331.782 84.167 L 332.833 84.167 332.836 86.625 C 332.837 87.977,332.883 89.253,332.939 89.460 L 333.040 89.836 342.895 89.793 L 352.750 89.750 352.750 84.464 C 352.750 78.354,352.851 78.718,351.116 78.556 L 350.000 78.452 349.988 75.851 C 349.964 70.563,349.863 70.234,348.204 70.061 L 347.167 69.953 347.156 67.435 C 347.134 62.152,346.982 61.652,345.361 61.534 L 344.379 61.463 344.296 58.727 C 344.199 55.548,344.313 55.772,342.764 55.694 L 341.551 55.633 341.442 52.873 C 341.382 51.355,341.333 49.540,341.333 48.840 C 341.333 47.250,341.253 47.167,339.717 47.167 L 338.500 47.167 338.500 43.104 C 338.500 38.433,338.605 38.725,336.871 38.564 L 335.683 38.454 335.633 34.485 C 335.596 31.506,335.529 30.462,335.367 30.300 C 335.195 30.128,332.898 30.074,324.156 30.037 L 313.162 29.991 312.998 30.423 M345.771 30.152 C 344.544 30.330,344.138 31.430,344.415 33.822 C 344.576 35.208,344.759 35.398,346.028 35.499 L 347.083 35.583 347.167 38.200 C 347.264 41.255,347.243 41.215,348.815 41.304 L 349.956 41.368 350.035 43.959 C 350.127 46.994,350.131 47.000,351.764 47.000 L 352.798 47.000 352.858 49.658 C 352.926 52.733,352.882 52.648,354.455 52.780 L 355.628 52.878 355.696 55.533 C 355.773 58.596,355.717 58.494,357.349 58.497 L 358.449 58.500 358.558 60.526 C 358.618 61.641,358.667 63.197,358.668 63.985 C 358.669 66.517,358.827 66.768,360.528 66.946 L 361.500 67.047 361.500 69.487 C 361.500 72.589,361.541 72.667,363.176 72.667 L 364.333 72.667 364.333 81.250 L 364.333 89.833 372.810 89.833 L 381.286 89.833 381.393 88.809 C 381.452 88.245,381.500 84.392,381.500 80.246 L 381.500 72.707 382.505 72.634 C 384.121 72.517,384.308 71.875,384.326 66.375 L 384.333 64.167 385.587 64.167 C 387.165 64.167,387.167 64.164,387.167 60.924 L 387.167 58.536 388.405 58.474 C 389.998 58.393,389.908 58.565,389.973 55.504 L 390.029 52.869 390.535 52.768 C 390.814 52.712,391.323 52.667,391.667 52.667 C 392.664 52.667,392.743 52.452,392.807 49.558 L 392.863 47.000 393.900 47.000 C 395.565 47.000,395.574 46.984,395.636 43.949 L 395.690 41.370 396.746 41.257 C 398.494 41.069,398.417 41.348,398.417 35.274 L 398.417 30.083 388.778 30.083 C 377.428 30.083,378.668 29.768,378.665 32.657 C 378.664 33.716,378.617 34.865,378.560 35.208 L 378.456 35.833 377.580 35.833 C 375.891 35.833,375.700 36.464,375.676 42.125 L 375.667 44.333 374.411 44.333 C 373.264 44.333,373.144 44.365,373.018 44.706 L 372.881 45.078 372.762 44.706 C 372.653 44.362,372.544 44.333,371.322 44.333 L 370.000 44.333 369.990 41.625 C 369.970 36.336,369.805 35.833,368.090 35.833 L 367.216 35.833 367.100 33.491 C 366.982 31.108,366.833 30.455,366.352 30.221 C 366.015 30.056,346.875 29.993,345.771 30.152 M268.542 47.109 L 270.167 47.217 270.167 48.090 C 270.167 49.352,270.491 49.685,271.845 49.814 L 272.917 49.917 273.017 50.970 C 273.145 52.304,273.377 52.541,274.642 52.633 L 275.628 52.704 275.748 55.260 C 275.890 58.297,275.895 58.305,277.375 58.443 L 278.500 58.548 278.500 59.920 L 278.500 61.292 277.979 61.396 C 277.693 61.453,277.224 61.501,276.938 61.503 C 275.834 61.508,275.716 62.068,275.682 67.458 L 275.667 70.000 274.351 70.000 C 272.817 70.000,272.833 69.982,272.833 71.680 L 272.833 72.833 267.167 72.833 L 261.500 72.833 261.500 59.917 L 261.500 47.000 264.208 47.001 C 265.698 47.001,267.648 47.050,268.542 47.109 M215.749 48.292 C 215.808 48.910,215.883 49.500,215.915 49.602 C 215.946 49.705,216.574 49.840,217.319 49.905 L 218.667 50.023 218.667 51.158 C 218.667 52.543,218.750 52.626,220.304 52.770 L 221.500 52.881 221.500 60.024 L 221.500 67.167 220.283 67.167 C 218.756 67.167,218.667 67.256,218.667 68.783 L 218.667 70.000 217.458 70.003 C 215.907 70.006,215.899 70.014,215.758 71.542 L 215.638 72.833 214.258 72.833 L 212.878 72.833 212.793 71.638 C 212.686 70.152,212.516 70.000,210.968 70.000 L 209.833 70.000 209.833 69.018 C 209.833 67.658,209.547 67.336,208.230 67.217 L 207.217 67.125 207.116 64.547 C 207.004 61.686,206.936 61.500,206.000 61.500 C 205.656 61.500,205.141 61.453,204.854 61.396 L 204.333 61.292 204.333 59.920 L 204.333 58.548 205.449 58.444 C 207.011 58.298,206.997 58.324,207.116 55.279 L 207.218 52.667 208.091 52.667 C 209.368 52.667,209.726 52.319,209.833 50.974 L 209.917 49.917 211.110 49.868 C 212.556 49.809,212.676 49.694,212.792 48.252 L 212.879 47.167 214.260 47.167 L 215.640 47.167 215.749 48.292 M324.333 61.333 L 324.333 64.167 322.917 64.167 L 321.500 64.167 321.500 62.773 L 321.500 61.379 322.585 61.292 C 324.043 61.175,324.167 61.046,324.167 59.646 C 324.167 59.016,324.204 58.500,324.250 58.500 C 324.296 58.500,324.333 59.775,324.333 61.333 " stroke="none" fill="#ffffff" fill-rule="evenodd"></path><path id="path1" d="M1.500 59.917 L 1.500 89.833 10.000 89.833 L 18.500 89.833 18.500 59.917 L 18.500 30.000 10.000 30.000 L 1.500 30.000 1.500 59.917 M39.167 30.121 C 38.751 30.280,38.672 30.533,38.669 31.708 L 38.667 32.833 37.292 32.842 C 33.636 32.865,33.000 33.147,33.000 34.747 L 33.000 35.623 31.741 35.704 C 30.188 35.803,30.137 35.854,30.037 37.408 L 29.956 38.667 29.153 38.667 C 27.422 38.667,27.333 38.817,27.210 41.958 L 27.118 44.333 26.091 44.333 C 24.236 44.333,24.424 42.757,24.366 58.778 C 24.302 76.500,24.185 75.349,26.063 75.469 L 27.167 75.539 27.179 77.228 C 27.204 80.704,27.350 81.043,28.883 81.167 L 29.917 81.250 30.027 82.492 C 30.164 84.019,30.324 84.167,31.846 84.167 L 32.961 84.167 33.030 85.250 C 33.131 86.838,33.437 86.980,36.792 86.993 L 38.667 87.000 38.667 88.217 C 38.667 89.992,37.430 89.833,51.246 89.833 C 65.368 89.833,64.167 89.989,64.167 88.157 L 64.167 87.000 66.042 86.993 C 69.397 86.980,69.702 86.838,69.803 85.250 L 69.872 84.167 71.019 84.167 C 72.561 84.167,72.833 83.908,72.833 82.441 L 72.833 81.381 74.038 81.269 C 75.623 81.122,75.583 81.194,75.583 78.500 C 75.583 75.782,75.605 75.820,74.018 75.707 L 72.846 75.623 72.798 74.270 L 72.750 72.917 71.400 72.869 L 70.049 72.821 69.932 70.452 C 69.781 67.384,69.631 67.167,67.665 67.167 L 67.039 67.167 66.970 66.081 C 66.875 64.586,66.689 64.432,64.901 64.358 C 62.050 64.239,61.741 64.405,61.559 66.153 L 61.454 67.154 60.102 67.202 L 58.750 67.250 58.702 68.621 L 58.653 69.992 55.868 70.038 L 53.083 70.083 52.893 71.167 C 52.724 72.131,52.701 72.174,52.685 71.560 C 52.650 70.226,52.393 70.098,49.600 70.026 L 47.167 69.963 47.167 68.992 C 47.167 67.296,47.054 67.167,45.587 67.167 L 44.333 67.167 44.333 60.026 L 44.333 52.885 45.625 52.734 L 46.917 52.583 47.065 51.311 L 47.214 50.039 47.964 49.936 C 48.376 49.880,48.930 49.833,49.194 49.833 C 49.788 49.833,50.000 49.369,50.000 48.072 L 50.000 47.167 51.480 47.167 L 52.960 47.167 53.033 48.172 C 53.141 49.669,53.212 49.709,56.166 49.892 L 58.667 50.048 58.667 51.278 C 58.667 52.718,58.802 52.833,60.492 52.833 L 61.462 52.833 61.529 54.010 C 61.607 55.385,61.659 55.437,63.142 55.596 C 65.685 55.868,66.999 55.502,67.002 54.521 C 67.003 54.189,67.050 53.635,67.107 53.292 L 67.210 52.667 68.087 52.667 C 69.689 52.667,69.960 52.045,69.990 48.292 L 70.000 47.000 71.325 47.000 C 72.411 47.000,72.681 46.947,72.820 46.708 C 72.982 46.431,72.990 46.431,72.995 46.708 C 73.000 46.981,73.450 47.000,80.083 47.000 L 87.167 47.000 87.167 68.417 L 87.167 89.833 95.649 89.833 C 103.230 89.833,104.142 89.805,104.232 89.570 C 104.288 89.425,104.333 79.788,104.333 68.155 L 104.333 47.004 111.375 46.960 L 118.417 46.917 118.460 38.458 L 118.503 30.000 95.769 30.000 C 75.193 30.000,73.026 30.025,72.934 30.264 C 72.879 30.409,72.833 31.761,72.833 33.269 C 72.833 35.929,72.824 36.007,72.511 35.839 C 72.334 35.744,71.706 35.667,71.117 35.667 L 70.045 35.667 69.960 34.488 C 69.846 32.893,69.908 32.925,66.929 32.864 L 64.374 32.810 64.260 31.502 C 64.178 30.563,64.075 30.167,63.893 30.097 C 63.566 29.972,39.498 29.995,39.167 30.121 M141.540 38.458 L 141.583 46.917 148.625 46.960 L 155.667 47.004 155.667 68.155 C 155.667 79.788,155.712 89.425,155.768 89.570 C 155.858 89.805,156.770 89.833,164.351 89.833 L 172.833 89.833 172.833 68.417 L 172.833 47.000 179.904 47.000 C 186.499 47.000,186.981 46.980,187.052 46.708 C 187.094 46.548,187.137 47.850,187.147 49.603 L 187.167 52.789 185.988 52.873 C 184.294 52.994,184.417 52.441,184.417 59.938 C 184.417 67.546,184.285 67.000,186.115 67.000 L 187.167 67.000 187.169 71.042 C 187.172 75.761,187.093 75.524,188.713 75.628 L 189.960 75.708 190.030 78.190 C 190.114 81.114,190.121 81.128,191.696 81.275 L 192.790 81.377 192.898 82.564 C 193.029 84.006,193.200 84.167,194.596 84.167 C 195.776 84.167,195.827 84.233,195.831 85.786 C 195.834 86.954,195.953 87.000,198.982 87.000 L 201.487 87.000 201.535 88.375 L 201.583 89.750 214.104 89.793 C 224.361 89.828,226.657 89.795,226.808 89.614 C 226.909 89.492,227.041 88.863,227.101 88.217 L 227.211 87.041 229.480 86.967 C 232.492 86.869,232.505 86.862,232.750 84.967 L 232.851 84.184 233.634 84.083 C 235.530 83.838,235.536 83.828,235.635 80.792 L 235.709 78.500 236.841 78.500 C 238.524 78.500,238.500 78.522,238.500 76.918 L 238.500 75.539 239.585 75.470 C 241.263 75.363,241.210 75.497,241.381 70.960 C 241.583 65.582,241.421 45.915,241.169 45.220 C 240.946 44.610,240.341 44.333,239.225 44.333 L 238.500 44.333 238.499 42.292 C 238.498 39.053,238.283 38.667,236.489 38.667 L 235.667 38.667 235.667 37.532 C 235.667 35.985,235.513 35.814,234.036 35.708 L 232.847 35.623 232.748 34.853 C 232.508 32.996,232.580 33.040,229.539 32.895 L 227.210 32.784 227.102 31.600 C 226.942 29.849,228.159 30.000,214.168 30.000 C 200.252 30.000,201.500 29.841,201.500 31.617 L 201.500 32.833 199.125 32.850 C 196.013 32.872,195.928 32.897,195.874 33.840 C 195.851 34.249,195.793 34.819,195.745 35.107 L 195.658 35.631 194.424 35.693 C 192.916 35.769,192.968 35.718,192.871 37.224 L 192.793 38.453 191.528 38.601 C 189.986 38.782,190.040 38.664,190.017 41.958 L 190.000 44.333 188.681 44.333 C 187.781 44.333,187.334 44.400,187.277 44.542 C 187.231 44.656,187.187 41.550,187.180 37.639 C 187.173 33.727,187.121 30.409,187.066 30.264 C 186.974 30.025,184.807 30.000,164.231 30.000 L 141.497 30.000 141.540 38.458 M244.444 30.111 C 244.383 30.172,244.333 43.635,244.333 60.029 L 244.333 89.835 262.792 89.792 L 281.250 89.750 281.298 88.375 L 281.347 87.000 283.892 87.000 C 286.977 87.000,286.955 87.011,287.104 85.375 L 287.215 84.167 288.435 84.167 C 289.896 84.167,290.000 84.052,290.000 82.446 L 290.000 81.370 291.258 81.306 C 292.862 81.225,292.828 81.293,292.831 78.208 L 292.833 75.667 293.822 75.667 C 294.367 75.667,295.004 75.594,295.239 75.504 L 295.667 75.342 295.667 71.171 L 295.667 67.000 296.750 67.000 C 298.609 67.000,298.500 67.439,298.500 59.949 C 298.500 52.516,298.611 52.999,296.875 52.875 L 295.691 52.790 295.631 47.603 C 295.558 41.385,295.597 41.500,293.558 41.500 L 292.833 41.500 292.831 40.292 C 292.827 38.704,292.791 38.663,291.275 38.548 L 290.000 38.452 290.000 37.321 C 290.000 35.836,289.831 35.667,288.344 35.667 L 287.211 35.667 287.126 34.471 C 287.009 32.831,287.014 32.833,283.885 32.833 L 281.333 32.833 281.333 31.518 C 281.333 30.472,281.279 30.182,281.070 30.101 C 280.708 29.962,244.583 29.972,244.444 30.111 M312.998 30.423 C 312.907 30.661,312.833 31.928,312.833 33.239 L 312.833 35.624 311.680 35.737 C 310.027 35.900,310.093 35.717,310.026 40.359 L 309.969 44.333 308.860 44.336 C 307.150 44.340,307.257 44.054,307.200 48.744 L 307.150 52.833 305.942 52.833 C 304.291 52.833,304.333 52.752,304.333 55.950 L 304.333 58.667 303.511 58.667 C 301.603 58.667,301.502 58.919,301.501 63.708 L 301.500 67.167 300.359 67.167 C 298.739 67.167,298.667 67.275,298.667 69.695 C 298.667 70.751,298.618 72.518,298.559 73.623 L 298.451 75.632 297.312 75.696 C 295.728 75.786,295.807 75.569,295.706 80.133 L 295.619 84.126 294.390 84.205 C 293.714 84.248,293.106 84.339,293.039 84.406 C 292.881 84.563,292.879 89.158,293.037 89.543 C 293.150 89.819,293.740 89.833,302.954 89.793 L 312.750 89.750 312.798 88.375 L 312.847 87.000 313.995 87.000 C 315.672 87.000,315.667 87.009,315.667 83.905 L 315.667 81.333 322.811 81.333 L 329.955 81.333 330.041 82.529 C 330.146 83.997,330.326 84.167,331.782 84.167 L 332.833 84.167 332.836 86.625 C 332.837 87.977,332.883 89.253,332.939 89.460 L 333.040 89.836 342.895 89.793 L 352.750 89.750 352.750 84.464 C 352.750 78.354,352.851 78.718,351.116 78.556 L 350.000 78.452 349.988 75.851 C 349.964 70.563,349.863 70.234,348.204 70.061 L 347.167 69.953 347.156 67.435 C 347.134 62.152,346.982 61.652,345.361 61.534 L 344.379 61.463 344.296 58.727 C 344.199 55.548,344.313 55.772,342.764 55.694 L 341.551 55.633 341.442 52.873 C 341.382 51.355,341.333 49.540,341.333 48.840 C 341.333 47.250,341.253 47.167,339.717 47.167 L 338.500 47.167 338.500 43.104 C 338.500 38.433,338.605 38.725,336.871 38.564 L 335.683 38.454 335.633 34.485 C 335.596 31.506,335.529 30.462,335.367 30.300 C 335.195 30.128,332.898 30.074,324.156 30.037 L 313.162 29.991 312.998 30.423 M345.771 30.152 C 344.544 30.330,344.138 31.430,344.415 33.822 C 344.576 35.208,344.759 35.398,346.028 35.499 L 347.083 35.583 347.167 38.200 C 347.264 41.255,347.243 41.215,348.815 41.304 L 349.956 41.368 350.035 43.959 C 350.127 46.994,350.131 47.000,351.764 47.000 L 352.798 47.000 352.858 49.658 C 352.926 52.733,352.882 52.648,354.455 52.780 L 355.628 52.878 355.696 55.533 C 355.773 58.596,355.717 58.494,357.349 58.497 L 358.449 58.500 358.558 60.526 C 358.618 61.641,358.667 63.197,358.668 63.985 C 358.669 66.517,358.827 66.768,360.528 66.946 L 361.500 67.047 361.500 69.487 C 361.500 72.589,361.541 72.667,363.176 72.667 L 364.333 72.667 364.333 81.250 L 364.333 89.833 372.810 89.833 L 381.286 89.833 381.393 88.809 C 381.452 88.245,381.500 84.392,381.500 80.246 L 381.500 72.707 382.505 72.634 C 384.121 72.517,384.308 71.875,384.326 66.375 L 384.333 64.167 385.587 64.167 C 387.165 64.167,387.167 64.164,387.167 60.924 L 387.167 58.536 388.405 58.474 C 389.998 58.393,389.908 58.565,389.973 55.504 L 390.029 52.869 390.535 52.768 C 390.814 52.712,391.323 52.667,391.667 52.667 C 392.664 52.667,392.743 52.452,392.807 49.558 L 392.863 47.000 393.900 47.000 C 395.565 47.000,395.574 46.984,395.636 43.949 L 395.690 41.370 396.746 41.257 C 398.494 41.069,398.417 41.348,398.417 35.274 L 398.417 30.083 388.778 30.083 C 377.428 30.083,378.668 29.768,378.665 32.657 C 378.664 33.716,378.617 34.865,378.560 35.208 L 378.456 35.833 377.580 35.833 C 375.891 35.833,375.700 36.464,375.676 42.125 L 375.667 44.333 374.411 44.333 C 373.264 44.333,373.144 44.365,373.018 44.706 L 372.881 45.078 372.762 44.706 C 372.653 44.362,372.544 44.333,371.322 44.333 L 370.000 44.333 369.990 41.625 C 369.970 36.336,369.805 35.833,368.090 35.833 L 367.216 35.833 367.100 33.491 C 366.982 31.108,366.833 30.455,366.352 30.221 C 366.015 30.056,346.875 29.993,345.771 30.152 M268.542 47.109 L 270.167 47.217 270.167 48.090 C 270.167 49.352,270.491 49.685,271.845 49.814 L 272.917 49.917 273.017 50.970 C 273.145 52.304,273.377 52.541,274.642 52.633 L 275.628 52.704 275.748 55.260 C 275.890 58.297,275.895 58.305,277.375 58.443 L 278.500 58.548 278.500 59.920 L 278.500 61.292 277.979 61.396 C 277.693 61.453,277.224 61.501,276.938 61.503 C 275.834 61.508,275.716 62.068,275.682 67.458 L 275.667 70.000 274.351 70.000 C 272.817 70.000,272.833 69.982,272.833 71.680 L 272.833 72.833 267.167 72.833 L 261.500 72.833 261.500 59.917 L 261.500 47.000 264.208 47.001 C 265.698 47.001,267.648 47.050,268.542 47.109 M215.749 48.292 C 215.808 48.910,215.883 49.500,215.915 49.602 C 215.946 49.705,216.574 49.840,217.319 49.905 L 218.667 50.023 218.667 51.158 C 218.667 52.543,218.750 52.626,220.304 52.770 L 221.500 52.881 221.500 60.024 L 221.500 67.167 220.283 67.167 C 218.756 67.167,218.667 67.256,218.667 68.783 L 218.667 70.000 217.458 70.003 C 215.907 70.006,215.899 70.014,215.758 71.542 L 215.638 72.833 214.258 72.833 L 212.878 72.833 212.793 71.638 C 212.686 70.152,212.516 70.000,210.968 70.000 L 209.833 70.000 209.833 69.018 C 209.833 67.658,209.547 67.336,208.230 67.217 L 207.217 67.125 207.116 64.547 C 207.004 61.686,206.936 61.500,206.000 61.500 C 205.656 61.500,205.141 61.453,204.854 61.396 L 204.333 61.292 204.333 59.920 L 204.333 58.548 205.449 58.444 C 207.011 58.298,206.997 58.324,207.116 55.279 L 207.218 52.667 208.091 52.667 C 209.368 52.667,209.726 52.319,209.833 50.974 L 209.917 49.917 211.110 49.868 C 212.556 49.809,212.676 49.694,212.792 48.252 L 212.879 47.167 214.260 47.167 L 215.640 47.167 215.749 48.292 M324.333 61.333 L 324.333 64.167 322.917 64.167 L 321.500 64.167 321.500 62.773 L 321.500 61.379 322.585 61.292 C 324.043 61.175,324.167 61.046,324.167 59.646 C 324.167 59.016,324.204 58.500,324.250 58.500 C 324.296 58.500,324.333 59.775,324.333 61.333 " stroke="none" fill="#ffffff" fill-rule="evenodd"></path><path id="path2" d="M1.500 59.917 L 1.500 89.833 10.000 89.833 L 18.500 89.833 18.500 59.917 L 18.500 30.000 10.000 30.000 L 1.500 30.000 1.500 59.917 M39.167 30.121 C 38.751 30.280,38.672 30.533,38.669 31.708 L 38.667 32.833 37.292 32.842 C 33.636 32.865,33.000 33.147,33.000 34.747 L 33.000 35.623 31.741 35.704 C 30.188 35.803,30.137 35.854,30.037 37.408 L 29.956 38.667 29.153 38.667 C 27.422 38.667,27.333 38.817,27.210 41.958 L 27.118 44.333 26.091 44.333 C 24.236 44.333,24.424 42.757,24.366 58.778 C 24.302 76.500,24.185 75.349,26.063 75.469 L 27.167 75.539 27.179 77.228 C 27.204 80.704,27.350 81.043,28.883 81.167 L 29.917 81.250 30.027 82.492 C 30.164 84.019,30.324 84.167,31.846 84.167 L 32.961 84.167 33.030 85.250 C 33.131 86.838,33.437 86.980,36.792 86.993 L 38.667 87.000 38.667 88.217 C 38.667 89.992,37.430 89.833,51.246 89.833 C 65.368 89.833,64.167 89.989,64.167 88.157 L 64.167 87.000 66.042 86.993 C 69.397 86.980,69.702 86.838,69.803 85.250 L 69.872 84.167 71.019 84.167 C 72.561 84.167,72.833 83.908,72.833 82.441 L 72.833 81.381 74.038 81.269 C 75.623 81.122,75.583 81.194,75.583 78.500 C 75.583 75.782,75.605 75.820,74.018 75.707 L 72.846 75.623 72.798 74.270 L 72.750 72.917 71.400 72.869 L 70.049 72.821 69.932 70.452 C 69.781 67.384,69.631 67.167,67.665 67.167 L 67.039 67.167 66.970 66.081 C 66.875 64.586,66.689 64.432,64.901 64.358 C 62.050 64.239,61.741 64.405,61.559 66.153 L 61.454 67.154 60.102 67.202 L 58.750 67.250 58.702 68.621 L 58.653 69.992 55.868 70.038 L 53.083 70.083 52.893 71.167 C 52.724 72.131,52.701 72.174,52.685 71.560 C 52.650 70.226,52.393 70.098,49.600 70.026 L 47.167 69.963 47.167 68.992 C 47.167 67.296,47.054 67.167,45.587 67.167 L 44.333 67.167 44.333 60.026 L 44.333 52.885 45.625 52.734 L 46.917 52.583 47.065 51.311 L 47.214 50.039 47.964 49.936 C 48.376 49.880,48.930 49.833,49.194 49.833 C 49.788 49.833,50.000 49.369,50.000 48.072 L 50.000 47.167 51.480 47.167 L 52.960 47.167 53.033 48.172 C 53.141 49.669,53.212 49.709,56.166 49.892 L 58.667 50.048 58.667 51.278 C 58.667 52.718,58.802 52.833,60.492 52.833 L 61.462 52.833 61.529 54.010 C 61.607 55.385,61.659 55.437,63.142 55.596 C 65.685 55.868,66.999 55.502,67.002 54.521 C 67.003 54.189,67.050 53.635,67.107 53.292 L 67.210 52.667 68.087 52.667 C 69.689 52.667,69.960 52.045,69.990 48.292 L 70.000 47.000 71.325 47.000 C 72.411 47.000,72.681 46.947,72.820 46.708 C 72.982 46.431,72.990 46.431,72.995 46.708 C 73.000 46.981,73.450 47.000,80.083 47.000 L 87.167 47.000 87.167 68.417 L 87.167 89.833 95.649 89.833 C 103.230 89.833,104.142 89.805,104.232 89.570 C 104.288 89.425,104.333 79.788,104.333 68.155 L 104.333 47.004 111.375 46.960 L 118.417 46.917 118.460 38.458 L 118.503 30.000 95.769 30.000 C 75.193 30.000,73.026 30.025,72.934 30.264 C 72.879 30.409,72.833 31.761,72.833 33.269 C 72.833 35.929,72.824 36.007,72.511 35.839 C 72.334 35.744,71.706 35.667,71.117 35.667 L 70.045 35.667 69.960 34.488 C 69.846 32.893,69.908 32.925,66.929 32.864 L 64.374 32.810 64.260 31.502 C 64.178 30.563,64.075 30.167,63.893 30.097 C 63.566 29.972,39.498 29.995,39.167 30.121 M141.540 38.458 L 141.583 46.917 148.625 46.960 L 155.667 47.004 155.667 68.155 C 155.667 79.788,155.712 89.425,155.768 89.570 C 155.858 89.805,156.770 89.833,164.351 89.833 L 172.833 89.833 172.833 68.417 L 172.833 47.000 179.904 47.000 C 186.499 47.000,186.981 46.980,187.052 46.708 C 187.094 46.548,187.137 47.850,187.147 49.603 L 187.167 52.789 185.988 52.873 C 184.294 52.994,184.417 52.441,184.417 59.938 C 184.417 67.546,184.285 67.000,186.115 67.000 L 187.167 67.000 187.169 71.042 C 187.172 75.761,187.093 75.524,188.713 75.628 L 189.960 75.708 190.030 78.190 C 190.114 81.114,190.121 81.128,191.696 81.275 L 192.790 81.377 192.898 82.564 C 193.029 84.006,193.200 84.167,194.596 84.167 C 195.776 84.167,195.827 84.233,195.831 85.786 C 195.834 86.954,195.953 87.000,198.982 87.000 L 201.487 87.000 201.535 88.375 L 201.583 89.750 214.104 89.793 C 224.361 89.828,226.657 89.795,226.808 89.614 C 226.909 89.492,227.041 88.863,227.101 88.217 L 227.211 87.041 229.480 86.967 C 232.492 86.869,232.505 86.862,232.750 84.967 L 232.851 84.184 233.634 84.083 C 235.530 83.838,235.536 83.828,235.635 80.792 L 235.709 78.500 236.841 78.500 C 238.524 78.500,238.500 78.522,238.500 76.918 L 238.500 75.539 239.585 75.470 C 241.263 75.363,241.210 75.497,241.381 70.960 C 241.583 65.582,241.421 45.915,241.169 45.220 C 240.946 44.610,240.341 44.333,239.225 44.333 L 238.500 44.333 238.499 42.292 C 238.498 39.053,238.283 38.667,236.489 38.667 L 235.667 38.667 235.667 37.532 C 235.667 35.985,235.513 35.814,234.036 35.708 L 232.847 35.623 232.748 34.853 C 232.508 32.996,232.580 33.040,229.539 32.895 L 227.210 32.784 227.102 31.600 C 226.942 29.849,228.159 30.000,214.168 30.000 C 200.252 30.000,201.500 29.841,201.500 31.617 L 201.500 32.833 199.125 32.850 C 196.013 32.872,195.928 32.897,195.874 33.840 C 195.851 34.249,195.793 34.819,195.745 35.107 L 195.658 35.631 194.424 35.693 C 192.916 35.769,192.968 35.718,192.871 37.224 L 192.793 38.453 191.528 38.601 C 189.986 38.782,190.040 38.664,190.017 41.958 L 190.000 44.333 188.681 44.333 C 187.781 44.333,187.334 44.400,187.277 44.542 C 187.231 44.656,187.187 41.550,187.180 37.639 C 187.173 33.727,187.121 30.409,187.066 30.264 C 186.974 30.025,184.807 30.000,164.231 30.000 L 141.497 30.000 141.540 38.458 M244.444 30.111 C 244.383 30.172,244.333 43.635,244.333 60.029 L 244.333 89.835 262.792 89.792 L 281.250 89.750 281.298 88.375 L 281.347 87.000 283.892 87.000 C 286.977 87.000,286.955 87.011,287.104 85.375 L 287.215 84.167 288.435 84.167 C 289.896 84.167,290.000 84.052,290.000 82.446 L 290.000 81.370 291.258 81.306 C 292.862 81.225,292.828 81.293,292.831 78.208 L 292.833 75.667 293.822 75.667 C 294.367 75.667,295.004 75.594,295.239 75.504 L 295.667 75.342 295.667 71.171 L 295.667 67.000 296.750 67.000 C 298.609 67.000,298.500 67.439,298.500 59.949 C 298.500 52.516,298.611 52.999,296.875 52.875 L 295.691 52.790 295.631 47.603 C 295.558 41.385,295.597 41.500,293.558 41.500 L 292.833 41.500 292.831 40.292 C 292.827 38.704,292.791 38.663,291.275 38.548 L 290.000 38.452 290.000 37.321 C 290.000 35.836,289.831 35.667,288.344 35.667 L 287.211 35.667 287.126 34.471 C 287.009 32.831,287.014 32.833,283.885 32.833 L 281.333 32.833 281.333 31.518 C 281.333 30.472,281.279 30.182,281.070 30.101 C 280.708 29.962,244.583 29.972,244.444 30.111 M312.998 30.423 C 312.907 30.661,312.833 31.928,312.833 33.239 L 312.833 35.624 311.680 35.737 C 310.027 35.900,310.093 35.717,310.026 40.359 L 309.969 44.333 308.860 44.336 C 307.150 44.340,307.257 44.054,307.200 48.744 L 307.150 52.833 305.942 52.833 C 304.291 52.833,304.333 52.752,304.333 55.950 L 304.333 58.667 303.511 58.667 C 301.603 58.667,301.502 58.919,301.501 63.708 L 301.500 67.167 300.359 67.167 C 298.739 67.167,298.667 67.275,298.667 69.695 C 298.667 70.751,298.618 72.518,298.559 73.623 L 298.451 75.632 297.312 75.696 C 295.728 75.786,295.807 75.569,295.706 80.133 L 295.619 84.126 294.390 84.205 C 293.714 84.248,293.106 84.339,293.039 84.406 C 292.881 84.563,292.879 89.158,293.037 89.543 C 293.150 89.819,293.740 89.833,302.954 89.793 L 312.750 89.750 312.798 88.375 L 312.847 87.000 313.995 87.000 C 315.672 87.000,315.667 87.009,315.667 83.905 L 315.667 81.333 322.811 81.333 L 329.955 81.333 330.041 82.529 C 330.146 83.997,330.326 84.167,331.782 84.167 L 332.833 84.167 332.836 86.625 C 332.837 87.977,332.883 89.253,332.939 89.460 L 333.040 89.836 342.895 89.793 L 352.750 89.750 352.750 84.464 C 352.750 78.354,352.851 78.718,351.116 78.556 L 350.000 78.452 349.988 75.851 C 349.964 70.563,349.863 70.234,348.204 70.061 L 347.167 69.953 347.156 67.435 C 347.134 62.152,346.982 61.652,345.361 61.534 L 344.379 61.463 344.296 58.727 C 344.199 55.548,344.313 55.772,342.764 55.694 L 341.551 55.633 341.442 52.873 C 341.382 51.355,341.333 49.540,341.333 48.840 C 341.333 47.250,341.253 47.167,339.717 47.167 L 338.500 47.167 338.500 43.104 C 338.500 38.433,338.605 38.725,336.871 38.564 L 335.683 38.454 335.633 34.485 C 335.596 31.506,335.529 30.462,335.367 30.300 C 335.195 30.128,332.898 30.074,324.156 30.037 L 313.162 29.991 312.998 30.423 M345.771 30.152 C 344.544 30.330,344.138 31.430,344.415 33.822 C 344.576 35.208,344.759 35.398,346.028 35.499 L 347.083 35.583 347.167 38.200 C 347.264 41.255,347.243 41.215,348.815 41.304 L 349.956 41.368 350.035 43.959 C 350.127 46.994,350.131 47.000,351.764 47.000 L 352.798 47.000 352.858 49.658 C 352.926 52.733,352.882 52.648,354.455 52.780 L 355.628 52.878 355.696 55.533 C 355.773 58.596,355.717 58.494,357.349 58.497 L 358.449 58.500 358.558 60.526 C 358.618 61.641,358.667 63.197,358.668 63.985 C 358.669 66.517,358.827 66.768,360.528 66.946 L 361.500 67.047 361.500 69.487 C 361.500 72.589,361.541 72.667,363.176 72.667 L 364.333 72.667 364.333 81.250 L 364.333 89.833 372.810 89.833 L 381.286 89.833 381.393 88.809 C 381.452 88.245,381.500 84.392,381.500 80.246 L 381.500 72.707 382.505 72.634 C 384.121 72.517,384.308 71.875,384.326 66.375 L 384.333 64.167 385.587 64.167 C 387.165 64.167,387.167 64.164,387.167 60.924 L 387.167 58.536 388.405 58.474 C 389.998 58.393,389.908 58.565,389.973 55.504 L 390.029 52.869 390.535 52.768 C 390.814 52.712,391.323 52.667,391.667 52.667 C 392.664 52.667,392.743 52.452,392.807 49.558 L 392.863 47.000 393.900 47.000 C 395.565 47.000,395.574 46.984,395.636 43.949 L 395.690 41.370 396.746 41.257 C 398.494 41.069,398.417 41.348,398.417 35.274 L 398.417 30.083 388.778 30.083 C 377.428 30.083,378.668 29.768,378.665 32.657 C 378.664 33.716,378.617 34.865,378.560 35.208 L 378.456 35.833 377.580 35.833 C 375.891 35.833,375.700 36.464,375.676 42.125 L 375.667 44.333 374.411 44.333 C 373.264 44.333,373.144 44.365,373.018 44.706 L 372.881 45.078 372.762 44.706 C 372.653 44.362,372.544 44.333,371.322 44.333 L 370.000 44.333 369.990 41.625 C 369.970 36.336,369.805 35.833,368.090 35.833 L 367.216 35.833 367.100 33.491 C 366.982 31.108,366.833 30.455,366.352 30.221 C 366.015 30.056,346.875 29.993,345.771 30.152 M268.542 47.109 L 270.167 47.217 270.167 48.090 C 270.167 49.352,270.491 49.685,271.845 49.814 L 272.917 49.917 273.017 50.970 C 273.145 52.304,273.377 52.541,274.642 52.633 L 275.628 52.704 275.748 55.260 C 275.890 58.297,275.895 58.305,277.375 58.443 L 278.500 58.548 278.500 59.920 L 278.500 61.292 277.979 61.396 C 277.693 61.453,277.224 61.501,276.938 61.503 C 275.834 61.508,275.716 62.068,275.682 67.458 L 275.667 70.000 274.351 70.000 C 272.817 70.000,272.833 69.982,272.833 71.680 L 272.833 72.833 267.167 72.833 L 261.500 72.833 261.500 59.917 L 261.500 47.000 264.208 47.001 C 265.698 47.001,267.648 47.050,268.542 47.109 M215.749 48.292 C 215.808 48.910,215.883 49.500,215.915 49.602 C 215.946 49.705,216.574 49.840,217.319 49.905 L 218.667 50.023 218.667 51.158 C 218.667 52.543,218.750 52.626,220.304 52.770 L 221.500 52.881 221.500 60.024 L 221.500 67.167 220.283 67.167 C 218.756 67.167,218.667 67.256,218.667 68.783 L 218.667 70.000 217.458 70.003 C 215.907 70.006,215.899 70.014,215.758 71.542 L 215.638 72.833 214.258 72.833 L 212.878 72.833 212.793 71.638 C 212.686 70.152,212.516 70.000,210.968 70.000 L 209.833 70.000 209.833 69.018 C 209.833 67.658,209.547 67.336,208.230 67.217 L 207.217 67.125 207.116 64.547 C 207.004 61.686,206.936 61.500,206.000 61.500 C 205.656 61.500,205.141 61.453,204.854 61.396 L 204.333 61.292 204.333 59.920 L 204.333 58.548 205.449 58.444 C 207.011 58.298,206.997 58.324,207.116 55.279 L 207.218 52.667 208.091 52.667 C 209.368 52.667,209.726 52.319,209.833 50.974 L 209.917 49.917 211.110 49.868 C 212.556 49.809,212.676 49.694,212.792 48.252 L 212.879 47.167 214.260 47.167 L 215.640 47.167 215.749 48.292 M324.333 61.333 L 324.333 64.167 322.917 64.167 L 321.500 64.167 321.500 62.773 L 321.500 61.379 322.585 61.292 C 324.043 61.175,324.167 61.046,324.167 59.646 C 324.167 59.016,324.204 58.500,324.250 58.500 C 324.296 58.500,324.333 59.775,324.333 61.333 " stroke="none" fill="#ffffff" fill-rule="evenodd"></path><path id="path3" d="M1.500 59.917 L 1.500 89.833 10.000 89.833 L 18.500 89.833 18.500 59.917 L 18.500 30.000 10.000 30.000 L 1.500 30.000 1.500 59.917 M39.167 30.121 C 38.751 30.280,38.672 30.533,38.669 31.708 L 38.667 32.833 37.292 32.842 C 33.636 32.865,33.000 33.147,33.000 34.747 L 33.000 35.623 31.741 35.704 C 30.188 35.803,30.137 35.854,30.037 37.408 L 29.956 38.667 29.153 38.667 C 27.422 38.667,27.333 38.817,27.210 41.958 L 27.118 44.333 26.091 44.333 C 24.236 44.333,24.424 42.757,24.366 58.778 C 24.302 76.500,24.185 75.349,26.063 75.469 L 27.167 75.539 27.179 77.228 C 27.204 80.704,27.350 81.043,28.883 81.167 L 29.917 81.250 30.027 82.492 C 30.164 84.019,30.324 84.167,31.846 84.167 L 32.961 84.167 33.030 85.250 C 33.131 86.838,33.437 86.980,36.792 86.993 L 38.667 87.000 38.667 88.217 C 38.667 89.992,37.430 89.833,51.246 89.833 C 65.368 89.833,64.167 89.989,64.167 88.157 L 64.167 87.000 66.042 86.993 C 69.397 86.980,69.702 86.838,69.803 85.250 L 69.872 84.167 71.019 84.167 C 72.561 84.167,72.833 83.908,72.833 82.441 L 72.833 81.381 74.038 81.269 C 75.623 81.122,75.583 81.194,75.583 78.500 C 75.583 75.782,75.605 75.820,74.018 75.707 L 72.846 75.623 72.798 74.270 L 72.750 72.917 71.400 72.869 L 70.049 72.821 69.932 70.452 C 69.781 67.384,69.631 67.167,67.665 67.167 L 67.039 67.167 66.970 66.081 C 66.875 64.586,66.689 64.432,64.901 64.358 C 62.050 64.239,61.741 64.405,61.559 66.153 L 61.454 67.154 60.102 67.202 L 58.750 67.250 58.702 68.621 L 58.653 69.992 55.868 70.038 L 53.083 70.083 52.893 71.167 C 52.724 72.131,52.701 72.174,52.685 71.560 C 52.650 70.226,52.393 70.098,49.600 70.026 L 47.167 69.963 47.167 68.992 C 47.167 67.296,47.054 67.167,45.587 67.167 L 44.333 67.167 44.333 60.026 L 44.333 52.885 45.625 52.734 L 46.917 52.583 47.065 51.311 L 47.214 50.039 47.964 49.936 C 48.376 49.880,48.930 49.833,49.194 49.833 C 49.788 49.833,50.000 49.369,50.000 48.072 L 50.000 47.167 51.480 47.167 L 52.960 47.167 53.033 48.172 C 53.141 49.669,53.212 49.709,56.166 49.892 L 58.667 50.048 58.667 51.278 C 58.667 52.718,58.802 52.833,60.492 52.833 L 61.462 52.833 61.529 54.010 C 61.607 55.385,61.659 55.437,63.142 55.596 C 65.685 55.868,66.999 55.502,67.002 54.521 C 67.003 54.189,67.050 53.635,67.107 53.292 L 67.210 52.667 68.087 52.667 C 69.689 52.667,69.960 52.045,69.990 48.292 L 70.000 47.000 71.325 47.000 C 72.411 47.000,72.681 46.947,72.820 46.708 C 72.982 46.431,72.990 46.431,72.995 46.708 C 73.000 46.981,73.450 47.000,80.083 47.000 L 87.167 47.000 87.167 68.417 L 87.167 89.833 95.649 89.833 C 103.230 89.833,104.142 89.805,104.232 89.570 C 104.288 89.425,104.333 79.788,104.333 68.155 L 104.333 47.004 111.375 46.960 L 118.417 46.917 118.460 38.458 L 118.503 30.000 95.769 30.000 C 75.193 30.000,73.026 30.025,72.934 30.264 C 72.879 30.409,72.833 31.761,72.833 33.269 C 72.833 35.929,72.824 36.007,72.511 35.839 C 72.334 35.744,71.706 35.667,71.117 35.667 L 70.045 35.667 69.960 34.488 C 69.846 32.893,69.908 32.925,66.929 32.864 L 64.374 32.810 64.260 31.502 C 64.178 30.563,64.075 30.167,63.893 30.097 C 63.566 29.972,39.498 29.995,39.167 30.121 M141.540 38.458 L 141.583 46.917 148.625 46.960 L 155.667 47.004 155.667 68.155 C 155.667 79.788,155.712 89.425,155.768 89.570 C 155.858 89.805,156.770 89.833,164.351 89.833 L 172.833 89.833 172.833 68.417 L 172.833 47.000 179.904 47.000 C 186.499 47.000,186.981 46.980,187.052 46.708 C 187.094 46.548,187.137 47.850,187.147 49.603 L 187.167 52.789 185.988 52.873 C 184.294 52.994,184.417 52.441,184.417 59.938 C 184.417 67.546,184.285 67.000,186.115 67.000 L 187.167 67.000 187.169 71.042 C 187.172 75.761,187.093 75.524,188.713 75.628 L 189.960 75.708 190.030 78.190 C 190.114 81.114,190.121 81.128,191.696 81.275 L 192.790 81.377 192.898 82.564 C 193.029 84.006,193.200 84.167,194.596 84.167 C 195.776 84.167,195.827 84.233,195.831 85.786 C 195.834 86.954,195.953 87.000,198.982 87.000 L 201.487 87.000 201.535 88.375 L 201.583 89.750 214.104 89.793 C 224.361 89.828,226.657 89.795,226.808 89.614 C 226.909 89.492,227.041 88.863,227.101 88.217 L 227.211 87.041 229.480 86.967 C 232.492 86.869,232.505 86.862,232.750 84.967 L 232.851 84.184 233.634 84.083 C 235.530 83.838,235.536 83.828,235.635 80.792 L 235.709 78.500 236.841 78.500 C 238.524 78.500,238.500 78.522,238.500 76.918 L 238.500 75.539 239.585 75.470 C 241.263 75.363,241.210 75.497,241.381 70.960 C 241.583 65.582,241.421 45.915,241.169 45.220 C 240.946 44.610,240.341 44.333,239.225 44.333 L 238.500 44.333 238.499 42.292 C 238.498 39.053,238.283 38.667,236.489 38.667 L 235.667 38.667 235.667 37.532 C 235.667 35.985,235.513 35.814,234.036 35.708 L 232.847 35.623 232.748 34.853 C 232.508 32.996,232.580 33.040,229.539 32.895 L 227.210 32.784 227.102 31.600 C 226.942 29.849,228.159 30.000,214.168 30.000 C 200.252 30.000,201.500 29.841,201.500 31.617 L 201.500 32.833 199.125 32.850 C 196.013 32.872,195.928 32.897,195.874 33.840 C 195.851 34.249,195.793 34.819,195.745 35.107 L 195.658 35.631 194.424 35.693 C 192.916 35.769,192.968 35.718,192.871 37.224 L 192.793 38.453 191.528 38.601 C 189.986 38.782,190.040 38.664,190.017 41.958 L 190.000 44.333 188.681 44.333 C 187.781 44.333,187.334 44.400,187.277 44.542 C 187.231 44.656,187.187 41.550,187.180 37.639 C 187.173 33.727,187.121 30.409,187.066 30.264 C 186.974 30.025,184.807 30.000,164.231 30.000 L 141.497 30.000 141.540 38.458 M244.444 30.111 C 244.383 30.172,244.333 43.635,244.333 60.029 L 244.333 89.835 262.792 89.792 L 281.250 89.750 281.298 88.375 L 281.347 87.000 283.892 87.000 C 286.977 87.000,286.955 87.011,287.104 85.375 L 287.215 84.167 288.435 84.167 C 289.896 84.167,290.000 84.052,290.000 82.446 L 290.000 81.370 291.258 81.306 C 292.862 81.225,292.828 81.293,292.831 78.208 L 292.833 75.667 293.822 75.667 C 294.367 75.667,295.004 75.594,295.239 75.504 L 295.667 75.342 295.667 71.171 L 295.667 67.000 296.750 67.000 C 298.609 67.000,298.500 67.439,298.500 59.949 C 298.500 52.516,298.611 52.999,296.875 52.875 L 295.691 52.790 295.631 47.603 C 295.558 41.385,295.597 41.500,293.558 41.500 L 292.833 41.500 292.831 40.292 C 292.827 38.704,292.791 38.663,291.275 38.548 L 290.000 38.452 290.000 37.321 C 290.000 35.836,289.831 35.667,288.344 35.667 L 287.211 35.667 287.126 34.471 C 287.009 32.831,287.014 32.833,283.885 32.833 L 281.333 32.833 281.333 31.518 C 281.333 30.472,281.279 30.182,281.070 30.101 C 280.708 29.962,244.583 29.972,244.444 30.111 M312.998 30.423 C 312.907 30.661,312.833 31.928,312.833 33.239 L 312.833 35.624 311.680 35.737 C 310.027 35.900,310.093 35.717,310.026 40.359 L 309.969 44.333 308.860 44.336 C 307.150 44.340,307.257 44.054,307.200 48.744 L 307.150 52.833 305.942 52.833 C 304.291 52.833,304.333 52.752,304.333 55.950 L 304.333 58.667 303.511 58.667 C 301.603 58.667,301.502 58.919,301.501 63.708 L 301.500 67.167 300.359 67.167 C 298.739 67.167,298.667 67.275,298.667 69.695 C 298.667 70.751,298.618 72.518,298.559 73.623 L 298.451 75.632 297.312 75.696 C 295.728 75.786,295.807 75.569,295.706 80.133 L 295.619 84.126 294.390 84.205 C 293.714 84.248,293.106 84.339,293.039 84.406 C 292.881 84.563,292.879 89.158,293.037 89.543 C 293.150 89.819,293.740 89.833,302.954 89.793 L 312.750 89.750 312.798 88.375 L 312.847 87.000 313.995 87.000 C 315.672 87.000,315.667 87.009,315.667 83.905 L 315.667 81.333 322.811 81.333 L 329.955 81.333 330.041 82.529 C 330.146 83.997,330.326 84.167,331.782 84.167 L 332.833 84.167 332.836 86.625 C 332.837 87.977,332.883 89.253,332.939 89.460 L 333.040 89.836 342.895 89.793 L 352.750 89.750 352.750 84.464 C 352.750 78.354,352.851 78.718,351.116 78.556 L 350.000 78.452 349.988 75.851 C 349.964 70.563,349.863 70.234,348.204 70.061 L 347.167 69.953 347.156 67.435 C 347.134 62.152,346.982 61.652,345.361 61.534 L 344.379 61.463 344.296 58.727 C 344.199 55.548,344.313 55.772,342.764 55.694 L 341.551 55.633 341.442 52.873 C 341.382 51.355,341.333 49.540,341.333 48.840 C 341.333 47.250,341.253 47.167,339.717 47.167 L 338.500 47.167 338.500 43.104 C 338.500 38.433,338.605 38.725,336.871 38.564 L 335.683 38.454 335.633 34.485 C 335.596 31.506,335.529 30.462,335.367 30.300 C 335.195 30.128,332.898 30.074,324.156 30.037 L 313.162 29.991 312.998 30.423 M345.771 30.152 C 344.544 30.330,344.138 31.430,344.415 33.822 C 344.576 35.208,344.759 35.398,346.028 35.499 L 347.083 35.583 347.167 38.200 C 347.264 41.255,347.243 41.215,348.815 41.304 L 349.956 41.368 350.035 43.959 C 350.127 46.994,350.131 47.000,351.764 47.000 L 352.798 47.000 352.858 49.658 C 352.926 52.733,352.882 52.648,354.455 52.780 L 355.628 52.878 355.696 55.533 C 355.773 58.596,355.717 58.494,357.349 58.497 L 358.449 58.500 358.558 60.526 C 358.618 61.641,358.667 63.197,358.668 63.985 C 358.669 66.517,358.827 66.768,360.528 66.946 L 361.500 67.047 361.500 69.487 C 361.500 72.589,361.541 72.667,363.176 72.667 L 364.333 72.667 364.333 81.250 L 364.333 89.833 372.810 89.833 L 381.286 89.833 381.393 88.809 C 381.452 88.245,381.500 84.392,381.500 80.246 L 381.500 72.707 382.505 72.634 C 384.121 72.517,384.308 71.875,384.326 66.375 L 384.333 64.167 385.587 64.167 C 387.165 64.167,387.167 64.164,387.167 60.924 L 387.167 58.536 388.405 58.474 C 389.998 58.393,389.908 58.565,389.973 55.504 L 390.029 52.869 390.535 52.768 C 390.814 52.712,391.323 52.667,391.667 52.667 C 392.664 52.667,392.743 52.452,392.807 49.558 L 392.863 47.000 393.900 47.000 C 395.565 47.000,395.574 46.984,395.636 43.949 L 395.690 41.370 396.746 41.257 C 398.494 41.069,398.417 41.348,398.417 35.274 L 398.417 30.083 388.778 30.083 C 377.428 30.083,378.668 29.768,378.665 32.657 C 378.664 33.716,378.617 34.865,378.560 35.208 L 378.456 35.833 377.580 35.833 C 375.891 35.833,375.700 36.464,375.676 42.125 L 375.667 44.333 374.411 44.333 C 373.264 44.333,373.144 44.365,373.018 44.706 L 372.881 45.078 372.762 44.706 C 372.653 44.362,372.544 44.333,371.322 44.333 L 370.000 44.333 369.990 41.625 C 369.970 36.336,369.805 35.833,368.090 35.833 L 367.216 35.833 367.100 33.491 C 366.982 31.108,366.833 30.455,366.352 30.221 C 366.015 30.056,346.875 29.993,345.771 30.152 M268.542 47.109 L 270.167 47.217 270.167 48.090 C 270.167 49.352,270.491 49.685,271.845 49.814 L 272.917 49.917 273.017 50.970 C 273.145 52.304,273.377 52.541,274.642 52.633 L 275.628 52.704 275.748 55.260 C 275.890 58.297,275.895 58.305,277.375 58.443 L 278.500 58.548 278.500 59.920 L 278.500 61.292 277.979 61.396 C 277.693 61.453,277.224 61.501,276.938 61.503 C 275.834 61.508,275.716 62.068,275.682 67.458 L 275.667 70.000 274.351 70.000 C 272.817 70.000,272.833 69.982,272.833 71.680 L 272.833 72.833 267.167 72.833 L 261.500 72.833 261.500 59.917 L 261.500 47.000 264.208 47.001 C 265.698 47.001,267.648 47.050,268.542 47.109 M215.749 48.292 C 215.808 48.910,215.883 49.500,215.915 49.602 C 215.946 49.705,216.574 49.840,217.319 49.905 L 218.667 50.023 218.667 51.158 C 218.667 52.543,218.750 52.626,220.304 52.770 L 221.500 52.881 221.500 60.024 L 221.500 67.167 220.283 67.167 C 218.756 67.167,218.667 67.256,218.667 68.783 L 218.667 70.000 217.458 70.003 C 215.907 70.006,215.899 70.014,215.758 71.542 L 215.638 72.833 214.258 72.833 L 212.878 72.833 212.793 71.638 C 212.686 70.152,212.516 70.000,210.968 70.000 L 209.833 70.000 209.833 69.018 C 209.833 67.658,209.547 67.336,208.230 67.217 L 207.217 67.125 207.116 64.547 C 207.004 61.686,206.936 61.500,206.000 61.500 C 205.656 61.500,205.141 61.453,204.854 61.396 L 204.333 61.292 204.333 59.920 L 204.333 58.548 205.449 58.444 C 207.011 58.298,206.997 58.324,207.116 55.279 L 207.218 52.667 208.091 52.667 C 209.368 52.667,209.726 52.319,209.833 50.974 L 209.917 49.917 211.110 49.868 C 212.556 49.809,212.676 49.694,212.792 48.252 L 212.879 47.167 214.260 47.167 L 215.640 47.167 215.749 48.292 M324.333 61.333 L 324.333 64.167 322.917 64.167 L 321.500 64.167 321.500 62.773 L 321.500 61.379 322.585 61.292 C 324.043 61.175,324.167 61.046,324.167 59.646 C 324.167 59.016,324.204 58.500,324.250 58.500 C 324.296 58.500,324.333 59.775,324.333 61.333 " stroke="none" fill="#ffffff" fill-rule="evenodd"></path><path id="path4" d="M1.500 59.917 L 1.500 89.833 10.000 89.833 L 18.500 89.833 18.500 59.917 L 18.500 30.000 10.000 30.000 L 1.500 30.000 1.500 59.917 M39.167 30.121 C 38.751 30.280,38.672 30.533,38.669 31.708 L 38.667 32.833 37.292 32.842 C 33.636 32.865,33.000 33.147,33.000 34.747 L 33.000 35.623 31.741 35.704 C 30.188 35.803,30.137 35.854,30.037 37.408 L 29.956 38.667 29.153 38.667 C 27.422 38.667,27.333 38.817,27.210 41.958 L 27.118 44.333 26.091 44.333 C 24.236 44.333,24.424 42.757,24.366 58.778 C 24.302 76.500,24.185 75.349,26.063 75.469 L 27.167 75.539 27.179 77.228 C 27.204 80.704,27.350 81.043,28.883 81.167 L 29.917 81.250 30.027 82.492 C 30.164 84.019,30.324 84.167,31.846 84.167 L 32.961 84.167 33.030 85.250 C 33.131 86.838,33.437 86.980,36.792 86.993 L 38.667 87.000 38.667 88.217 C 38.667 89.992,37.430 89.833,51.246 89.833 C 65.368 89.833,64.167 89.989,64.167 88.157 L 64.167 87.000 66.042 86.993 C 69.397 86.980,69.702 86.838,69.803 85.250 L 69.872 84.167 71.019 84.167 C 72.561 84.167,72.833 83.908,72.833 82.441 L 72.833 81.381 74.038 81.269 C 75.623 81.122,75.583 81.194,75.583 78.500 C 75.583 75.782,75.605 75.820,74.018 75.707 L 72.846 75.623 72.798 74.270 L 72.750 72.917 71.400 72.869 L 70.049 72.821 69.932 70.452 C 69.781 67.384,69.631 67.167,67.665 67.167 L 67.039 67.167 66.970 66.081 C 66.875 64.586,66.689 64.432,64.901 64.358 C 62.050 64.239,61.741 64.405,61.559 66.153 L 61.454 67.154 60.102 67.202 L 58.750 67.250 58.702 68.621 L 58.653 69.992 55.868 70.038 L 53.083 70.083 52.893 71.167 C 52.724 72.131,52.701 72.174,52.685 71.560 C 52.650 70.226,52.393 70.098,49.600 70.026 L 47.167 69.963 47.167 68.992 C 47.167 67.296,47.054 67.167,45.587 67.167 L 44.333 67.167 44.333 60.026 L 44.333 52.885 45.625 52.734 L 46.917 52.583 47.065 51.311 L 47.214 50.039 47.964 49.936 C 48.376 49.880,48.930 49.833,49.194 49.833 C 49.788 49.833,50.000 49.369,50.000 48.072 L 50.000 47.167 51.480 47.167 L 52.960 47.167 53.033 48.172 C 53.141 49.669,53.212 49.709,56.166 49.892 L 58.667 50.048 58.667 51.278 C 58.667 52.718,58.802 52.833,60.492 52.833 L 61.462 52.833 61.529 54.010 C 61.607 55.385,61.659 55.437,63.142 55.596 C 65.685 55.868,66.999 55.502,67.002 54.521 C 67.003 54.189,67.050 53.635,67.107 53.292 L 67.210 52.667 68.087 52.667 C 69.689 52.667,69.960 52.045,69.990 48.292 L 70.000 47.000 71.325 47.000 C 72.411 47.000,72.681 46.947,72.820 46.708 C 72.982 46.431,72.990 46.431,72.995 46.708 C 73.000 46.981,73.450 47.000,80.083 47.000 L 87.167 47.000 87.167 68.417 L 87.167 89.833 95.649 89.833 C 103.230 89.833,104.142 89.805,104.232 89.570 C 104.288 89.425,104.333 79.788,104.333 68.155 L 104.333 47.004 111.375 46.960 L 118.417 46.917 118.460 38.458 L 118.503 30.000 95.769 30.000 C 75.193 30.000,73.026 30.025,72.934 30.264 C 72.879 30.409,72.833 31.761,72.833 33.269 C 72.833 35.929,72.824 36.007,72.511 35.839 C 72.334 35.744,71.706 35.667,71.117 35.667 L 70.045 35.667 69.960 34.488 C 69.846 32.893,69.908 32.925,66.929 32.864 L 64.374 32.810 64.260 31.502 C 64.178 30.563,64.075 30.167,63.893 30.097 C 63.566 29.972,39.498 29.995,39.167 30.121 M141.540 38.458 L 141.583 46.917 148.625 46.960 L 155.667 47.004 155.667 68.155 C 155.667 79.788,155.712 89.425,155.768 89.570 C 155.858 89.805,156.770 89.833,164.351 89.833 L 172.833 89.833 172.833 68.417 L 172.833 47.000 179.904 47.000 C 186.499 47.000,186.981 46.980,187.052 46.708 C 187.094 46.548,187.137 47.850,187.147 49.603 L 187.167 52.789 185.988 52.873 C 184.294 52.994,184.417 52.441,184.417 59.938 C 184.417 67.546,184.285 67.000,186.115 67.000 L 187.167 67.000 187.169 71.042 C 187.172 75.761,187.093 75.524,188.713 75.628 L 189.960 75.708 190.030 78.190 C 190.114 81.114,190.121 81.128,191.696 81.275 L 192.790 81.377 192.898 82.564 C 193.029 84.006,193.200 84.167,194.596 84.167 C 195.776 84.167,195.827 84.233,195.831 85.786 C 195.834 86.954,195.953 87.000,198.982 87.000 L 201.487 87.000 201.535 88.375 L 201.583 89.750 214.104 89.793 C 224.361 89.828,226.657 89.795,226.808 89.614 C 226.909 89.492,227.041 88.863,227.101 88.217 L 227.211 87.041 229.480 86.967 C 232.492 86.869,232.505 86.862,232.750 84.967 L 232.851 84.184 233.634 84.083 C 235.530 83.838,235.536 83.828,235.635 80.792 L 235.709 78.500 236.841 78.500 C 238.524 78.500,238.500 78.522,238.500 76.918 L 238.500 75.539 239.585 75.470 C 241.263 75.363,241.210 75.497,241.381 70.960 C 241.583 65.582,241.421 45.915,241.169 45.220 C 240.946 44.610,240.341 44.333,239.225 44.333 L 238.500 44.333 238.499 42.292 C 238.498 39.053,238.283 38.667,236.489 38.667 L 235.667 38.667 235.667 37.532 C 235.667 35.985,235.513 35.814,234.036 35.708 L 232.847 35.623 232.748 34.853 C 232.508 32.996,232.580 33.040,229.539 32.895 L 227.210 32.784 227.102 31.600 C 226.942 29.849,228.159 30.000,214.168 30.000 C 200.252 30.000,201.500 29.841,201.500 31.617 L 201.500 32.833 199.125 32.850 C 196.013 32.872,195.928 32.897,195.874 33.840 C 195.851 34.249,195.793 34.819,195.745 35.107 L 195.658 35.631 194.424 35.693 C 192.916 35.769,192.968 35.718,192.871 37.224 L 192.793 38.453 191.528 38.601 C 189.986 38.782,190.040 38.664,190.017 41.958 L 190.000 44.333 188.681 44.333 C 187.781 44.333,187.334 44.400,187.277 44.542 C 187.231 44.656,187.187 41.550,187.180 37.639 C 187.173 33.727,187.121 30.409,187.066 30.264 C 186.974 30.025,184.807 30.000,164.231 30.000 L 141.497 30.000 141.540 38.458 M244.444 30.111 C 244.383 30.172,244.333 43.635,244.333 60.029 L 244.333 89.835 262.792 89.792 L 281.250 89.750 281.298 88.375 L 281.347 87.000 283.892 87.000 C 286.977 87.000,286.955 87.011,287.104 85.375 L 287.215 84.167 288.435 84.167 C 289.896 84.167,290.000 84.052,290.000 82.446 L 290.000 81.370 291.258 81.306 C 292.862 81.225,292.828 81.293,292.831 78.208 L 292.833 75.667 293.822 75.667 C 294.367 75.667,295.004 75.594,295.239 75.504 L 295.667 75.342 295.667 71.171 L 295.667 67.000 296.750 67.000 C 298.609 67.000,298.500 67.439,298.500 59.949 C 298.500 52.516,298.611 52.999,296.875 52.875 L 295.691 52.790 295.631 47.603 C 295.558 41.385,295.597 41.500,293.558 41.500 L 292.833 41.500 292.831 40.292 C 292.827 38.704,292.791 38.663,291.275 38.548 L 290.000 38.452 290.000 37.321 C 290.000 35.836,289.831 35.667,288.344 35.667 L 287.211 35.667 287.126 34.471 C 287.009 32.831,287.014 32.833,283.885 32.833 L 281.333 32.833 281.333 31.518 C 281.333 30.472,281.279 30.182,281.070 30.101 C 280.708 29.962,244.583 29.972,244.444 30.111 M312.998 30.423 C 312.907 30.661,312.833 31.928,312.833 33.239 L 312.833 35.624 311.680 35.737 C 310.027 35.900,310.093 35.717,310.026 40.359 L 309.969 44.333 308.860 44.336 C 307.150 44.340,307.257 44.054,307.200 48.744 L 307.150 52.833 305.942 52.833 C 304.291 52.833,304.333 52.752,304.333 55.950 L 304.333 58.667 303.511 58.667 C 301.603 58.667,301.502 58.919,301.501 63.708 L 301.500 67.167 300.359 67.167 C 298.739 67.167,298.667 67.275,298.667 69.695 C 298.667 70.751,298.618 72.518,298.559 73.623 L 298.451 75.632 297.312 75.696 C 295.728 75.786,295.807 75.569,295.706 80.133 L 295.619 84.126 294.390 84.205 C 293.714 84.248,293.106 84.339,293.039 84.406 C 292.881 84.563,292.879 89.158,293.037 89.543 C 293.150 89.819,293.740 89.833,302.954 89.793 L 312.750 89.750 312.798 88.375 L 312.847 87.000 313.995 87.000 C 315.672 87.000,315.667 87.009,315.667 83.905 L 315.667 81.333 322.811 81.333 L 329.955 81.333 330.041 82.529 C 330.146 83.997,330.326 84.167,331.782 84.167 L 332.833 84.167 332.836 86.625 C 332.837 87.977,332.883 89.253,332.939 89.460 L 333.040 89.836 342.895 89.793 L 352.750 89.750 352.750 84.464 C 352.750 78.354,352.851 78.718,351.116 78.556 L 350.000 78.452 349.988 75.851 C 349.964 70.563,349.863 70.234,348.204 70.061 L 347.167 69.953 347.156 67.435 C 347.134 62.152,346.982 61.652,345.361 61.534 L 344.379 61.463 344.296 58.727 C 344.199 55.548,344.313 55.772,342.764 55.694 L 341.551 55.633 341.442 52.873 C 341.382 51.355,341.333 49.540,341.333 48.840 C 341.333 47.250,341.253 47.167,339.717 47.167 L 338.500 47.167 338.500 43.104 C 338.500 38.433,338.605 38.725,336.871 38.564 L 335.683 38.454 335.633 34.485 C 335.596 31.506,335.529 30.462,335.367 30.300 C 335.195 30.128,332.898 30.074,324.156 30.037 L 313.162 29.991 312.998 30.423 M345.771 30.152 C 344.544 30.330,344.138 31.430,344.415 33.822 C 344.576 35.208,344.759 35.398,346.028 35.499 L 347.083 35.583 347.167 38.200 C 347.264 41.255,347.243 41.215,348.815 41.304 L 349.956 41.368 350.035 43.959 C 350.127 46.994,350.131 47.000,351.764 47.000 L 352.798 47.000 352.858 49.658 C 352.926 52.733,352.882 52.648,354.455 52.780 L 355.628 52.878 355.696 55.533 C 355.773 58.596,355.717 58.494,357.349 58.497 L 358.449 58.500 358.558 60.526 C 358.618 61.641,358.667 63.197,358.668 63.985 C 358.669 66.517,358.827 66.768,360.528 66.946 L 361.500 67.047 361.500 69.487 C 361.500 72.589,361.541 72.667,363.176 72.667 L 364.333 72.667 364.333 81.250 L 364.333 89.833 372.810 89.833 L 381.286 89.833 381.393 88.809 C 381.452 88.245,381.500 84.392,381.500 80.246 L 381.500 72.707 382.505 72.634 C 384.121 72.517,384.308 71.875,384.326 66.375 L 384.333 64.167 385.587 64.167 C 387.165 64.167,387.167 64.164,387.167 60.924 L 387.167 58.536 388.405 58.474 C 389.998 58.393,389.908 58.565,389.973 55.504 L 390.029 52.869 390.535 52.768 C 390.814 52.712,391.323 52.667,391.667 52.667 C 392.664 52.667,392.743 52.452,392.807 49.558 L 392.863 47.000 393.900 47.000 C 395.565 47.000,395.574 46.984,395.636 43.949 L 395.690 41.370 396.746 41.257 C 398.494 41.069,398.417 41.348,398.417 35.274 L 398.417 30.083 388.778 30.083 C 377.428 30.083,378.668 29.768,378.665 32.657 C 378.664 33.716,378.617 34.865,378.560 35.208 L 378.456 35.833 377.580 35.833 C 375.891 35.833,375.700 36.464,375.676 42.125 L 375.667 44.333 374.411 44.333 C 373.264 44.333,373.144 44.365,373.018 44.706 L 372.881 45.078 372.762 44.706 C 372.653 44.362,372.544 44.333,371.322 44.333 L 370.000 44.333 369.990 41.625 C 369.970 36.336,369.805 35.833,368.090 35.833 L 367.216 35.833 367.100 33.491 C 366.982 31.108,366.833 30.455,366.352 30.221 C 366.015 30.056,346.875 29.993,345.771 30.152 M268.542 47.109 L 270.167 47.217 270.167 48.090 C 270.167 49.352,270.491 49.685,271.845 49.814 L 272.917 49.917 273.017 50.970 C 273.145 52.304,273.377 52.541,274.642 52.633 L 275.628 52.704 275.748 55.260 C 275.890 58.297,275.895 58.305,277.375 58.443 L 278.500 58.548 278.500 59.920 L 278.500 61.292 277.979 61.396 C 277.693 61.453,277.224 61.501,276.938 61.503 C 275.834 61.508,275.716 62.068,275.682 67.458 L 275.667 70.000 274.351 70.000 C 272.817 70.000,272.833 69.982,272.833 71.680 L 272.833 72.833 267.167 72.833 L 261.500 72.833 261.500 59.917 L 261.500 47.000 264.208 47.001 C 265.698 47.001,267.648 47.050,268.542 47.109 M215.749 48.292 C 215.808 48.910,215.883 49.500,215.915 49.602 C 215.946 49.705,216.574 49.840,217.319 49.905 L 218.667 50.023 218.667 51.158 C 218.667 52.543,218.750 52.626,220.304 52.770 L 221.500 52.881 221.500 60.024 L 221.500 67.167 220.283 67.167 C 218.756 67.167,218.667 67.256,218.667 68.783 L 218.667 70.000 217.458 70.003 C 215.907 70.006,215.899 70.014,215.758 71.542 L 215.638 72.833 214.258 72.833 L 212.878 72.833 212.793 71.638 C 212.686 70.152,212.516 70.000,210.968 70.000 L 209.833 70.000 209.833 69.018 C 209.833 67.658,209.547 67.336,208.230 67.217 L 207.217 67.125 207.116 64.547 C 207.004 61.686,206.936 61.500,206.000 61.500 C 205.656 61.500,205.141 61.453,204.854 61.396 L 204.333 61.292 204.333 59.920 L 204.333 58.548 205.449 58.444 C 207.011 58.298,206.997 58.324,207.116 55.279 L 207.218 52.667 208.091 52.667 C 209.368 52.667,209.726 52.319,209.833 50.974 L 209.917 49.917 211.110 49.868 C 212.556 49.809,212.676 49.694,212.792 48.252 L 212.879 47.167 214.260 47.167 L 215.640 47.167 215.749 48.292 M324.333 61.333 L 324.333 64.167 322.917 64.167 L 321.500 64.167 321.500 62.773 L 321.500 61.379 322.585 61.292 C 324.043 61.175,324.167 61.046,324.167 59.646 C 324.167 59.016,324.204 58.500,324.250 58.500 C 324.296 58.500,324.333 59.775,324.333 61.333 " stroke="none" fill="#ffffff" fill-rule="evenodd"></path></g></svg>